<svg xmlns="http://www.w3.org/2000/svg"
     viewBox="0 0 490 490">
  <path id="brain-left"
        fill="#f00"
        d="m230 287.5h-42.5c-22.6 0-41.2-17.8-42.4-40.1 0-0.1 0-0.1 0-0.2 0-0.7-0.1-1.4-0.1-2.2 0-11.4 4.4-22 12.4-30.1L136.2 193.7C126.2 203.8 119.4 216.4 116.6 230h-69.7c-10-9.8-14.6-24-12.1-37.9 2.9-15.9 14.4-28.7 29.9-33.2l6.7-2 6.1-13.8-3.6-6.5c-8-14.6-6.7-32.6 3.2-46 8.1-10.8 20.5-17 34-17 1.3 0 2.6 0.1 3.9 0.2 0.2 14.3 4.6 27.9 12.5 39.5-8.1 11.9-12.4 25.9-12.4 40.6l30 0c0-11.4 4.4-22 12.4-30 8-8 18.7-12.4 30.1-12.4 0 0 0-30 0-30-13.6 0-26.6 3.7-37.8 10.6-3.1-6-4.8-12.6-4.8-19.6 0-2.4 0.2-4.7 0.6-7.1l0.2-1.1C149.7 44.5 167.2 30 187.5 30c23.4 0 42.5 19.1 42.5 42.5zm0 130c0 23.4-19.1 42.5-42.5 42.5-20.3 0-37.8-14.4-41.7-34.4l-0.2-1.1c-0.4-2.3-0.6-4.7-0.6-7.1 0-6.9 1.7-13.6 4.8-19.6 11.3 6.9 24.3 10.6 37.8 10.6l0-30c-11.4 0-22-4.4-30.1-12.4-8-8-12.4-18.7-12.4-30l-30 0c0 14.7 4.4 28.7 12.5 40.6-7.9 11.6-12.3 25.2-12.5 39.5-1.3 0.1-2.6 0.2-3.9 0.2-13.5 0-25.9-6.2-34.1-17-10-13.3-11.3-31.4-3.3-46l3.6-6.5-6.1-13.8-6.7-2C49 326.6 37.6 313.9 34.7 298 32.2 284 36.8 269.8 46.8 260h69.7c2.9 13.6 9.6 26.2 19.7 36.3 13.2 13.1 31.3 21.2 51.3 21.2h42.5z" />
  <path id="brain-right"
        fill="#00f"
        d="M302.5 30C279.1 30 260 49.1 260 72.5L260 172.5 302.5 172.5C322.5 172.5 340.6 180.6 353.8 193.7 363.9 203.8 370.6 216.4 373.4 230L443.2 230C453.2 220.2 457.8 206 455.3 192 452.4 176.1 441 163.4 425.4 158.8L418.7 156.8 415.6 149.8 412.6 143 416.2 136.5C424.2 121.9 422.9 103.9 412.9 90.6 404.8 79.7 392.4 73.5 378.8 73.5 377.5 73.5 376.3 73.6 375 73.7 374.7 88 370.4 101.7 362.5 113.3 370.5 125.2 374.9 139.2 374.9 153.9L344.9 153.9C344.9 142.6 340.5 131.9 332.5 123.9 324.4 115.8 313.8 111.4 302.4 111.4L302.4 81.4C316 81.4 329 85.1 340.2 92.1 343.3 86.1 345 79.4 345 72.5 345 70.1 344.8 67.7 344.4 65.4L344.2 64.4C340.3 44.4 322.8 30 302.5 30zM260 202.5L260 417.5C260 440.9 279.1 460 302.5 460 322.8 460 340.3 445.6 344.2 425.6L344.4 424.6C344.8 422.3 345 419.9 345 417.5 345 410.6 343.3 403.9 340.2 397.9 329 404.9 316 408.6 302.4 408.6 302.4 408.6 302.4 378.6 302.4 378.6 313.8 378.6 324.4 374.2 332.5 366.1 340.5 358.1 344.9 347.4 344.9 336.1L374.9 336.1C374.9 350.8 370.5 364.8 362.5 376.7 370.4 388.3 374.7 401.9 375 416.2 376.3 416.4 377.6 416.4 378.9 416.4 392.4 416.4 404.8 410.2 412.9 399.4 422.9 386.1 424.2 368.1 416.2 353.5L412.6 347 418.7 333.1 425.4 331.2C441 326.6 452.4 313.9 455.3 297.9 457.8 284 453.2 269.8 443.2 260L373.4 260C370.6 273.6 363.8 286.2 353.8 296.3L332.6 275.1C340.6 267 345 256.4 345 245 345 244.3 345 243.5 344.9 242.8 344.9 242.8 344.9 242.7 344.9 242.6 343.7 220.3 325.1 202.5 302.5 202.5L260 202.5z" />
  <path id="brain-outline"
        fill="#000"
        d="m470 245c13-16.2 18.6-37.4 14.8-58.3-4-21.9-17.4-40.2-36.3-50.5 6.2-21.5 2.1-45.2-11.7-63.6-13.6-18.2-35.3-29-58.1-29-3.2 0-6.4 0.2-9.6 0.6C358.1 17.9 332 0 302.5 0 279.1 0 258.3 11.1 245 28.4 231.7 11.1 210.9 0 187.5 0c-29.5 0-55.6 17.9-66.8 44.2-3.2-0.4-6.4-0.6-9.6-0.6-23.1 0-44.2 10.6-58 29-13.8 18.4-17.8 42-11.6 63.6-18.9 10.4-32.3 28.7-36.3 50.6-3.8 20.9 1.8 42.1 14.8 58.3-13 16.2-18.6 37.4-14.8 58.3 4 21.9 17.4 40.2 36.3 50.5-6.2 21.5-2.1 45.2 11.7 63.6 13.6 18.2 35.3 29 58.1 29 3.2 0 6.4-0.2 9.6-0.6 11.2 26.3 37.2 44.2 66.7 44.2 23.4 0 44.2-11.1 57.5-28.4 13.3 17.3 34.1 28.4 57.5 28.4 29.5 0 55.6-17.9 66.8-44.2 3.2 0.4 6.4 0.6 9.6 0.6 23.1 0 44.2-10.6 58-29 13.8-18.4 17.8-42 11.6-63.6 18.9-10.4 32.3-28.7 36.3-50.6 3.8-20.9-1.8-42.1-14.8-58.3zM230 417.5c0 23.4-19.1 42.5-42.5 42.5-20.3 0-37.8-14.4-41.7-34.4l-0.2-1.1c-0.4-2.3-0.6-4.7-0.6-7.1 0-6.9 1.7-13.6 4.8-19.6 11.3 6.9 24.3 10.6 37.8 10.6l0-30c-11.4 0-22-4.4-30.1-12.4-8-8-12.4-18.7-12.4-30l-30 0c0 14.7 4.4 28.7 12.5 40.6-7.9 11.6-12.3 25.2-12.5 39.5-1.3 0.1-2.6 0.2-3.9 0.2-13.5 0-25.9-6.2-34.1-17-10-13.3-11.3-31.4-3.3-46l3.6-6.5-6.1-13.8-6.7-2C49 326.6 37.6 313.9 34.7 298 32.2 284 36.8 269.8 46.8 260h69.7c2.9 13.6 9.6 26.2 19.7 36.3 13.2 13.1 31.3 21.2 51.3 21.2h42.5zm0-130h-42.5c-22.6 0-41.2-17.8-42.4-40.1 0-0.1 0-0.1 0-0.2 0-0.7-0.1-1.4-0.1-2.2 0-11.4 4.4-22 12.4-30.1L136.2 193.7C126.2 203.8 119.4 216.4 116.6 230h-69.7c-10-9.8-14.6-24-12.1-37.9 2.9-15.9 14.4-28.7 29.9-33.2l6.7-2 6.1-13.8-3.6-6.5c-8-14.6-6.7-32.6 3.2-46 8.1-10.8 20.5-17 34-17 1.3 0 2.6 0.1 3.9 0.2 0.2 14.3 4.6 27.9 12.5 39.5-8.1 11.9-12.4 25.9-12.4 40.6l30 0c0-11.4 4.4-22 12.4-30 8-8 18.7-12.4 30.1-12.4 0 0 0-30 0-30-13.6 0-26.6 3.7-37.8 10.6-3.1-6-4.8-12.6-4.8-19.6 0-2.4 0.2-4.7 0.6-7.1l0.2-1.1C149.7 44.5 167.2 30 187.5 30c23.4 0 42.5 19.1 42.5 42.5zm30-215C260 49.1 279.1 30 302.5 30c20.3 0 37.8 14.5 41.7 34.4l0.2 1c0.4 2.3 0.6 4.7 0.6 7.1 0 6.9-1.7 13.6-4.8 19.6-11.3-6.9-24.3-10.6-37.8-10.6l0 30c11.4 0 22 4.4 30.1 12.4 8 8 12.4 18.7 12.4 30l30 0c0-14.7-4.4-28.7-12.4-40.6 7.9-11.6 12.3-25.2 12.5-39.5 1.3-0.1 2.6-0.2 3.9-0.2 13.5 0 25.9 6.2 34.1 17 10 13.3 11.3 31.4 3.3 46l-3.6 6.5 3 6.8 3.1 7 6.7 2c15.6 4.6 27 17.3 29.9 33.2 2.5 13.9-2.1 28.2-12.1 38h-69.7c-2.9-13.6-9.6-26.2-19.7-36.3-13.2-13.1-31.3-21.2-51.3-21.2h-42.5zm195.3 225.4c-2.9 15.9-14.3 28.7-29.9 33.2l-6.7 2-6.1 13.8 3.6 6.5c8 14.6 6.7 32.6-3.2 46-8.1 10.8-20.5 17-34 17-1.3 0-2.6-0.1-3.9-0.2-0.2-14.3-4.6-27.9-12.5-39.5 8.1-11.9 12.4-25.9 12.5-40.6l-30 0c0 11.4-4.4 22-12.4 30-8 8-18.7 12.4-30 12.4 0 0 0 30 0 30 13.6 0 26.6-3.7 37.8-10.6 3.1 6 4.8 12.6 4.8 19.6 0 2.4-0.2 4.8-0.6 7.1l-0.2 1C340.3 445.6 322.8 460 302.5 460c-23.4 0-42.5-19.1-42.5-42.5v-215h42.5c22.6 0 41.2 17.8 42.4 40.1 0 0.1 0 0.1 0 0.2 0 0.7 0.1 1.4 0.1 2.2 0 11.4-4.4 22-12.4 30.1l21.2 21.2C363.8 286.2 370.6 273.6 373.4 260h69.8c10 9.8 14.6 24 12.1 37.9z" />
</svg>
