<svg width="480" height="480" version="1.1" viewBox="0 0 480 480">
    <path id="path823" d="M 240,0 C 107.56321,-10e-7 1.9834574e-6,107.56463 0,240.00092 0,372.43721 107.56321,480 240,480 372.4368,480 480,372.43721 480,240.00092 480,107.56463 372.4368,0 240,0 Z" style="color:#000000;font-style:normal;font-variant:normal;font-weight:normal;font-stretch:normal;font-size:medium;line-height:normal;font-family:sans-serif;font-variant-ligatures:normal;font-variant-position:normal;font-variant-caps:normal;font-variant-numeric:normal;font-variant-alternates:normal;font-feature-settings:normal;text-indent:0;text-align:start;text-decoration:none;text-decoration-line:none;text-decoration-style:solid;text-decoration-color:#000000;letter-spacing:normal;word-spacing:normal;text-transform:none;writing-mode:lr-tb;direction:ltr;text-orientation:mixed;dominant-baseline:auto;baseline-shift:baseline;text-anchor:start;white-space:normal;shape-padding:0;clip-rule:nonzero;display:inline;overflow:visible;visibility:visible;opacity:1;isolation:auto;mix-blend-mode:normal;color-interpolation:sRGB;color-interpolation-filters:linearRGB;solid-color:#000000;solid-opacity:1;vector-effect:none;fill:#ffcc00;fill-opacity:1;fill-rule:nonzero;stroke:none;stroke-width:18.87380219;stroke-linecap:butt;stroke-linejoin:miter;stroke-miterlimit:4;stroke-dasharray:none;stroke-dashoffset:0;stroke-opacity:1;color-rendering:auto;image-rendering:auto;shape-rendering:auto;text-rendering:auto;enable-background:accumulate"/>
    <path id="path4531" d="M 240,0 C 107.56321,-1e-6 1.9834574e-6,107.56463 0,240.00092 0,372.43721 107.56321,480 240,480 372.4368,480 480,372.43721 480,240.00092 480,107.56463 372.4368,0 240,0 Z m 0,18.873763 c 122.23662,0 221.12617,98.891007 221.12617,221.127157 0,122.23615 -98.88955,221.12532 -221.12617,221.12532 -122.23662,0 -221.126164,-98.88917 -221.126164,-221.12532 C 18.873838,117.76477 117.76338,18.873763 240,18.873763 Z" style="color:#000000;font-style:normal;font-variant:normal;font-weight:normal;font-stretch:normal;font-size:medium;line-height:normal;font-family:sans-serif;font-variant-ligatures:normal;font-variant-position:normal;font-variant-caps:normal;font-variant-numeric:normal;font-variant-alternates:normal;font-feature-settings:normal;text-indent:0;text-align:start;text-decoration:none;text-decoration-line:none;text-decoration-style:solid;text-decoration-color:#000000;letter-spacing:normal;word-spacing:normal;text-transform:none;writing-mode:lr-tb;direction:ltr;text-orientation:mixed;dominant-baseline:auto;baseline-shift:baseline;text-anchor:start;white-space:normal;shape-padding:0;clip-rule:nonzero;display:inline;overflow:visible;visibility:visible;opacity:1;isolation:auto;mix-blend-mode:normal;color-interpolation:sRGB;color-interpolation-filters:linearRGB;solid-color:#000000;solid-opacity:1;vector-effect:none;fill:#000000;fill-opacity:1;fill-rule:nonzero;stroke:none;stroke-width:18.87380219;stroke-linecap:butt;stroke-linejoin:miter;stroke-miterlimit:4;stroke-dasharray:none;stroke-dashoffset:0;stroke-opacity:1;color-rendering:auto;image-rendering:auto;shape-rendering:auto;text-rendering:auto;enable-background:accumulate"/>
    <path id="brain-left" d="m 231.00759,265.36397 h -25.39384 c -13.50354,0 -24.61708,-10.63554 -25.33409,-23.95984 0,-0.0598 0,-0.0598 0,-0.1195 0,-0.41825 -0.0598,-0.8365 -0.0598,-1.3145 0,-6.81153 2.62901,-13.14505 7.40903,-17.98482 L 174.9619,209.31827 c -5.97503,6.03477 -10.03804,13.5633 -11.71105,21.68933 h -41.64589 c -5.97502,-5.85553 -8.72353,-14.34006 -7.22978,-22.64533 1.73276,-9.50029 8.60403,-17.14832 17.86531,-19.83707 l 4.00327,-1.19501 3.64476,-8.24553 -2.15101,-3.88376 c -4.78001,-8.72353 -4.00326,-19.47857 1.91201,-27.4851 4.83977,-6.45302 12.24879,-10.15753 20.31507,-10.15753 0.77676,0 1.55351,0.0598 2.33026,0.1195 0.1195,8.54428 2.74851,16.6703 7.46878,23.60133 -4.83977,7.11027 -7.40903,15.4753 -7.40903,24.25858 h 17.92506 c 0,-6.81152 2.62901,-13.14504 7.40903,-17.92506 4.78002,-4.78002 11.17329,-7.40902 17.98481,-7.40902 0,0 0,-17.92507 0,-17.92507 -8.12602,0 -15.89355,2.21076 -22.58558,6.33352 -1.85225,-3.58501 -2.86801,-7.52852 -2.86801,-11.71104 0,-1.434 0.1195,-2.80826 0.35851,-4.24226 l 0.1195,-0.65725 c 2.33025,-11.83055 12.78654,-20.49433 24.91583,-20.49433 13.98155,0 25.39384,11.41229 25.39384,25.39384 z m 0,77.67527 c 0,13.98155 -11.41229,25.39384 -25.39384,25.39384 -12.12929,0 -22.58558,-8.60403 -24.91583,-20.55407 l -0.1195,-0.65725 c -0.23901,-1.37426 -0.35851,-2.80826 -0.35851,-4.24227 0,-4.12276 1.01576,-8.12603 2.86801,-11.71104 6.75178,4.12276 14.51931,6.33352 22.58558,6.33352 v -17.92506 c -6.81152,0 -13.14504,-2.62901 -17.98481,-7.40903 -4.78002,-4.78001 -7.40903,-11.17329 -7.40903,-17.92506 H 162.3546 c 0,8.78328 2.62901,17.14831 7.46878,24.25858 -4.72027,6.93103 -7.34928,15.05706 -7.46878,23.60134 -0.77675,0.0598 -1.5535,0.1195 -2.33026,0.1195 -8.06628,0 -15.4753,-3.70451 -20.37482,-10.15754 -5.97502,-7.94678 -6.75177,-18.76156 -1.97176,-27.48509 l 2.15101,-3.88377 -3.64476,-8.24553 -4.00327,-1.195 c -9.32103,-2.62901 -16.13255,-10.21729 -17.86531,-19.71757 -1.49375,-8.36503 1.25476,-16.84956 7.22978,-22.70508 h 41.64589 c 1.73276,8.12603 5.73602,15.65455 11.7708,21.68933 7.88702,7.82727 18.70181,12.66704 30.65185,12.66704 h 25.39384 z" style="fill:#ff0000;stroke-width:0.59750211"/>
    <path id="brain-right" d="m 274.3265,111.50717 c -13.98155,0 -25.39384,11.41229 -25.39384,25.39384 v 59.75021 h 25.39384 c 11.95004,0 22.76483,4.83977 30.65185,12.66705 6.03478,6.03477 10.03804,13.5633 11.71105,21.68933 h 41.70564 c 5.97502,-5.85553 8.72353,-14.34006 7.22978,-22.70508 -1.73276,-9.50029 -8.54428,-17.08857 -17.86531,-19.83707 l -4.00327,-1.19501 -1.85226,-4.18251 -1.7925,-4.06302 2.15101,-3.88376 c 4.78001,-8.72353 4.00326,-19.47857 -1.97176,-27.42535 -4.83977,-6.51277 -12.24879,-10.21728 -20.37482,-10.21728 -0.77676,0 -1.49376,0.0597 -2.27051,0.1195 -0.17925,8.54428 -2.74851,16.73005 -7.46878,23.66108 4.78002,7.11027 7.40903,15.4753 7.40903,24.25858 h -17.92506 c 0,-6.75177 -2.62901,-13.14504 -7.40903,-17.92506 -4.83977,-4.83977 -11.17329,-7.46877 -17.98481,-7.46877 v -17.92507 c 8.12602,0 15.89355,2.21076 22.58558,6.39327 1.85225,-3.58501 2.86801,-7.58827 2.86801,-11.71104 0,-1.434 -0.1195,-2.86801 -0.35851,-4.24226 l -0.1195,-0.5975 C 296.91208,120.1112 286.45579,111.50717 274.3265,111.50717 Z m -25.39384,103.06912 v 128.46295 c 0,13.98155 11.41229,25.39384 25.39384,25.39384 12.12929,0 22.58558,-8.60403 24.91583,-20.55407 l 0.1195,-0.5975 c 0.23901,-1.37426 0.35851,-2.80826 0.35851,-4.24227 0,-4.12276 -1.01576,-8.12603 -2.86801,-11.71104 -6.69203,4.18251 -14.45956,6.39327 -22.58558,6.39327 0,0 0,-17.92506 0,-17.92506 6.81152,0 13.14504,-2.62901 17.98481,-7.46878 4.78002,-4.78001 7.40903,-11.17329 7.40903,-17.92506 h 17.92506 c 0,8.78328 -2.62901,17.14831 -7.40903,24.25858 4.72027,6.93103 7.28953,15.05706 7.46878,23.60134 0.77675,0.1195 1.5535,0.1195 2.33026,0.1195 8.06628,0 15.4753,-3.70451 20.31507,-10.15754 5.97502,-7.94678 6.75177,-18.70181 1.97176,-27.42534 l -2.15101,-3.88377 3.64476,-8.30528 4.00327,-1.13525 c 9.32103,-2.74851 16.13255,-10.33679 17.86531,-19.89682 1.49375,-8.30528 -1.25476,-16.78981 -7.22978,-22.64533 H 316.6894 c -1.67301,8.12603 -5.73602,15.65455 -11.71105,21.68933 l -12.66704,-12.66705 c 4.78002,-4.83977 7.40903,-11.17329 7.40903,-17.98481 0,-0.41825 0,-0.89626 -0.0598,-1.31451 0,0 0,-0.0598 0,-0.1195 -0.71701,-13.3243 -11.83055,-23.95983 -25.33409,-23.95983 z" style="fill:#2a7fff;stroke-width:0.59750211"/>
    <path id="brain-outline" d="m 374.4081,239.97013 c 7.76753,-9.67954 11.11354,-22.34658 8.84303,-34.83438 -2.39001,-13.08529 -10.39654,-24.01958 -21.68933,-30.17385 3.70452,-12.8463 1.25476,-27.0071 -6.99077,-38.00114 -8.12603,-10.87454 -21.09182,-17.32756 -34.71487,-17.32756 -1.91201,0 -3.82402,0.1195 -5.73602,0.3585 -6.57253,-15.7143 -22.16733,-26.40959 -39.79364,-26.40959 -13.98155,0 -26.4096,6.63227 -34.35638,16.96906 -7.94677,-10.33679 -20.37482,-16.96906 -34.35637,-16.96906 -17.62631,0 -33.22111,10.69529 -39.91314,26.40959 -1.912,-0.239 -3.82401,-0.3585 -5.73602,-0.3585 -13.8023,0 -26.40959,6.33352 -34.65512,17.32756 -8.24553,10.99404 -10.63554,25.09509 -6.93102,38.00114 -11.29279,6.21402 -19.299323,17.14831 -21.689331,30.2336 -2.270508,12.4878 1.075504,25.15484 8.843031,34.83438 -7.767527,9.67953 -11.113539,22.34658 -8.843031,34.83437 2.390008,13.0853 10.396541,24.01958 21.689331,30.17386 -3.70452,12.84629 -1.25476,27.00709 6.99077,38.00113 8.12603,10.87454 21.09182,17.32756 34.71487,17.32756 1.91201,0 3.82402,-0.1195 5.73602,-0.3585 6.69203,15.71431 22.22708,26.40959 39.85339,26.40959 13.98155,0 26.4096,-6.63227 34.35638,-16.96906 7.94677,10.33679 20.37482,16.96906 34.35637,16.96906 17.62631,0 33.22111,-10.69528 39.91314,-26.40959 1.912,0.239 3.82401,0.3585 5.73602,0.3585 13.8023,0 26.40959,-6.33352 34.65512,-17.32756 8.24553,-10.99404 10.63554,-25.09509 6.93102,-38.00113 11.29279,-6.21403 19.29932,-17.14831 21.68933,-30.23361 2.27051,-12.48779 -1.0755,-25.15484 -8.84303,-34.83437 z M 231.00759,343.03924 c 0,13.98155 -11.41229,25.39384 -25.39384,25.39384 -12.12929,0 -22.58558,-8.60403 -24.91583,-20.55407 l -0.1195,-0.65725 c -0.23901,-1.37426 -0.35851,-2.80826 -0.35851,-4.24227 0,-4.12276 1.01576,-8.12603 2.86801,-11.71104 6.75178,4.12276 14.51931,6.33352 22.58558,6.33352 v -17.92506 c -6.81152,0 -13.14504,-2.62901 -17.98481,-7.40903 -4.78002,-4.78001 -7.40903,-11.17329 -7.40903,-17.92506 H 162.3546 c 0,8.78328 2.62901,17.14831 7.46878,24.25858 -4.72027,6.93103 -7.34928,15.05706 -7.46878,23.60134 -0.77675,0.0598 -1.5535,0.1195 -2.33026,0.1195 -8.06628,0 -15.4753,-3.70451 -20.37482,-10.15754 -5.97502,-7.94678 -6.75177,-18.76156 -1.97176,-27.48509 l 2.15101,-3.88377 -3.64476,-8.24553 -4.00327,-1.195 c -9.32103,-2.62901 -16.13255,-10.21729 -17.86531,-19.71757 -1.49375,-8.36503 1.25476,-16.84956 7.22978,-22.70508 h 41.64589 c 1.73276,8.12603 5.73602,15.65455 11.7708,21.68933 7.88702,7.82727 18.70181,12.66704 30.65185,12.66704 h 25.39384 z m 0,-77.67527 h -25.39384 c -13.50354,0 -24.61708,-10.63554 -25.33409,-23.95984 0,-0.0598 0,-0.0598 0,-0.1195 0,-0.41825 -0.0598,-0.8365 -0.0598,-1.3145 0,-6.81153 2.62901,-13.14505 7.40903,-17.98482 L 174.9619,209.31827 c -5.97503,6.03477 -10.03804,13.5633 -11.71105,21.68933 h -41.64589 c -5.97502,-5.85553 -8.72353,-14.34006 -7.22978,-22.64533 1.73276,-9.50029 8.60403,-17.14832 17.86531,-19.83707 l 4.00327,-1.19501 3.64476,-8.24553 -2.15101,-3.88376 c -4.78001,-8.72353 -4.00326,-19.47857 1.91201,-27.4851 4.83977,-6.45302 12.24879,-10.15753 20.31507,-10.15753 0.77676,0 1.55351,0.0598 2.33026,0.1195 0.1195,8.54428 2.74851,16.6703 7.46878,23.60133 -4.83977,7.11027 -7.40903,15.4753 -7.40903,24.25858 h 17.92506 c 0,-6.81152 2.62901,-13.14504 7.40903,-17.92506 4.78002,-4.78002 11.17329,-7.40902 17.98481,-7.40902 0,0 0,-17.92507 0,-17.92507 -8.12602,0 -15.89355,2.21076 -22.58558,6.33352 -1.85225,-3.58501 -2.86801,-7.52852 -2.86801,-11.71104 0,-1.434 0.1195,-2.80826 0.35851,-4.24226 l 0.1195,-0.65725 c 2.33025,-11.83055 12.78654,-20.49433 24.91583,-20.49433 13.98155,0 25.39384,11.41229 25.39384,25.39384 z m 17.92507,-128.46296 c 0,-13.98155 11.41229,-25.39384 25.39384,-25.39384 12.12929,0 22.58558,8.66378 24.91583,20.55408 l 0.1195,0.5975 c 0.23901,1.37425 0.35851,2.80826 0.35851,4.24226 0,4.12277 -1.01576,8.12603 -2.86801,11.71104 -6.75178,-4.12276 -14.51931,-6.33352 -22.58558,-6.33352 v 17.92507 c 6.81152,0 13.14504,2.629 17.98481,7.40902 4.78002,4.78002 7.40903,11.17329 7.40903,17.92506 h 17.92506 c 0,-8.78328 -2.62901,-17.14831 -7.40903,-24.25858 4.72027,-6.93103 7.34928,-15.05705 7.46878,-23.60133 0.77675,-0.0598 1.5535,-0.1195 2.33026,-0.1195 8.06628,0 15.4753,3.70451 20.37482,10.15753 5.97502,7.94678 6.75177,18.76157 1.97176,27.4851 l -2.15101,3.88376 1.79251,4.06302 1.85225,4.18251 4.00327,1.19501 c 9.32103,2.7485 16.13255,10.33678 17.86531,19.83707 1.49375,8.30527 -1.25476,16.84955 -7.22978,22.70508 H 316.8089 c -1.73276,-8.12603 -5.73602,-15.65456 -11.7708,-21.68933 -7.88702,-7.82728 -18.70181,-12.66705 -30.65185,-12.66705 h -25.39384 z m 116.69216,134.67698 c -1.73276,9.50028 -8.54428,17.14831 -17.86531,19.83707 l -4.00327,1.195 -3.64476,8.24553 2.15101,3.88377 c 4.78001,8.72353 4.00326,19.47856 -1.91201,27.48509 -4.83977,6.45303 -12.24879,10.15754 -20.31507,10.15754 -0.77676,0 -1.55351,-0.0597 -2.33026,-0.1195 -0.1195,-8.54428 -2.74851,-16.67031 -7.46878,-23.60134 4.83977,-7.11027 7.40903,-15.4753 7.46878,-24.25858 h -17.92506 c 0,6.81152 -2.62901,13.14505 -7.40903,17.92506 -4.78002,4.78002 -11.17329,7.40903 -17.92506,7.40903 0,0 0,17.92506 0,17.92506 8.12603,0 15.89355,-2.21076 22.58558,-6.33352 1.85225,3.58501 2.86801,7.52853 2.86801,11.71104 0,1.43401 -0.1195,2.86801 -0.3585,4.24227 l -0.11951,0.5975 c -2.5095,11.95004 -12.96579,20.55407 -25.09508,20.55407 -13.98155,0 -25.39384,-11.41229 -25.39384,-25.39384 V 214.57629 h 25.39384 c 13.50354,0 24.61708,10.63553 25.33409,23.95983 0,0.0597 0,0.0597 0,0.1195 0,0.41825 0.0598,0.83651 0.0598,1.31451 0,6.81152 -2.62901,13.14504 -7.40903,17.98481 l 12.66704,12.66705 c 5.97503,-6.03478 10.03804,-13.5633 11.71105,-21.68933 h 41.70564 c 5.97502,5.85552 8.72353,14.34005 7.22978,22.64533 z" style="fill:#000000;stroke:none;stroke-width:0.59750211"/>
</svg>
