<?xml version="1.0" encoding="UTF-8" standalone="no"?>
<svg
   xmlns:dc="http://purl.org/dc/elements/1.1/"
   xmlns:cc="http://creativecommons.org/ns#"
   xmlns:rdf="http://www.w3.org/1999/02/22-rdf-syntax-ns#"
   xmlns:svg="http://www.w3.org/2000/svg"
   xmlns="http://www.w3.org/2000/svg"
   xmlns:sodipodi="http://sodipodi.sourceforge.net/DTD/sodipodi-0.dtd"
   xmlns:inkscape="http://www.inkscape.org/namespaces/inkscape"
   inkscape:version="1.0alpha (e71173d, 2019-02-04)"
   sodipodi:docname="gyrony-logo.svg"
   id="svg90"
   version="1.1"
   height="72"
   width="72">
  <metadata
     id="metadata96">
    <rdf:RDF>
      <cc:Work
         rdf:about="">
        <dc:format>image/svg+xml</dc:format>
        <dc:type
           rdf:resource="http://purl.org/dc/dcmitype/StillImage" />
        <dc:title></dc:title>
      </cc:Work>
    </rdf:RDF>
  </metadata>
  <defs
     id="defs94" />
  <sodipodi:namedview
     inkscape:current-layer="svg90"
     inkscape:window-maximized="1"
     inkscape:window-y="0"
     inkscape:window-x="1024"
     inkscape:cy="36.308507"
     inkscape:cx="110.98546"
     inkscape:zoom="4.3561552"
     showgrid="false"
     id="namedview92"
     inkscape:window-height="1048"
     inkscape:window-width="1920"
     inkscape:pageshadow="2"
     inkscape:pageopacity="0"
     guidetolerance="10"
     gridtolerance="10"
     objecttolerance="10"
     borderopacity="1"
     inkscape:document-rotation="0"
     bordercolor="#666666"
     pagecolor="#ffffff" />
  <g
     id="g76"
     fill="red">
    <path
       inkscape:connector-curvature="0"
       id="path72"
       d="m 0.5,0.5 h 71 v 71 h -71 z"
       clip-rule="evenodd"
       fill-rule="evenodd" />
    <path
       inkscape:connector-curvature="0"
       id="path74"
       d="M 71,1 V 71 H 1 V 1 H 71 M 72,0 H 0 v 72 h 72 z" />
  </g>
  <path
     inkscape:connector-curvature="0"
     id="path80"
     d="M 55.3,38.6 C 55.2,38.3 55.1,37.8 55,37.5 55,37.4 55,37.3 54.9,37.1 54.7,36.2 54.3,35.2 54,34.7 53.8,34.4 53.7,34.3 53.6,34.1 53.6,34 53.5,33.9 53.4,33.9 53.2,33.6 53.2,33.4 53,33.1 52.8,32.7 52.4,32.1 52,31.6 51.9,31.5 51.8,31.3 51.7,31.2 51.5,30.9 51.2,30.6 50.9,30.3 50.8,30.2 50.8,30.1 50.7,30 l -0.2,-0.2 c -0.1,-0.2 -0.1,-0.2 -0.2,-0.3 0,0 -0.2,-0.1 -0.3,-0.2 -0.3,-0.3 -0.4,-0.4 -0.5,-0.6 v -0.1 c 0,-0.1 -0.2,-0.1 -0.2,-0.2 -0.1,-0.1 -0.1,-0.2 -0.2,-0.2 -0.1,-0.1 -0.4,-0.3 -0.6,-0.3 0.2,0.2 0.5,0.3 0.7,0.5 -0.1,0 0.2,0.2 0.2,0.3 -0.4,-0.2 -0.7,-0.6 -1.1,-0.8 l -0.6,-0.3 c 0,0 0,-0.1 -0.1,-0.1 0.1,-0.2 0.7,0.3 0.7,0.1 0.1,0.1 0,0.2 0.3,0.3 0.3,0.1 0.4,0.2 0.6,0.4 l 0.2,0.2 0.2,0.2 c 0.4,0.3 0.8,0.6 1.1,0.8 0.2,0.2 0.2,0.3 0.4,0.5 0.2,0.2 -0.2,-0.3 0.2,0 0.2,0.3 0.3,0.5 0.4,0.7 0.2,0.1 0.5,0.5 0.7,0.8 l 0.3,0.3 c 0.7,0.9 1.2,2.1 1.7,3.1 0.2,0.1 -0.3,-0.7 -0.1,-0.7 0.1,0.3 0.3,0.8 0.5,1.2 0.1,0.2 0.1,0 0.2,0.3 -0.1,0 0,0.8 0.2,1 0,-0.1 -0.1,-0.5 -0.1,-0.5 0.1,0 0.2,-0.1 0.2,0.2 -0.1,0 -0.2,-0.2 -0.1,0.2 0.1,0.4 0.1,-0.3 0.1,0 0,0.2 0.1,0.3 0.1,0.5 h -0.1 c 0,0.3 0.1,0.4 0.2,0.7 0,0.1 0,0.4 0.1,0.5 0.1,0.4 0.2,0.9 0.3,1.4 0,0.3 0,0.6 0.1,0.8 0,0.2 0.2,0.4 0.1,0.6 -0.1,-0.1 0,-0.5 -0.1,-0.5 0,0.5 0.1,1.3 0,1.8 0,0.2 0.1,-0.2 0.1,0.2 0,0.4 0,0.8 -0.1,1.2 -0.1,0.8 -0.3,1.6 -0.4,2.2 0,0.2 0,0.3 -0.1,0.5 -0.1,0.2 -0.2,0.4 -0.3,0.7 -0.1,0.2 -0.1,0.3 -0.1,0.5 -0.1,0.3 -0.3,0.7 -0.4,1 0.1,-0.1 0.2,-0.4 0.3,-0.3 -0.1,0.3 -0.3,0.7 -0.4,0.6 -0.1,0.1 0.1,-0.5 -0.1,-0.1 -0.1,0.1 -0.1,0.2 -0.1,0.3 -0.1,0.1 -0.1,0.2 -0.1,0.3 -0.2,0.3 -0.3,0.7 -0.6,1.2 0.1,0.4 -0.9,1.3 -1,1.7 -0.1,-0.1 -0.4,0.3 -0.7,0.7 0,0.1 0.4,-0.3 0.2,0 l -0.4,0.4 c 0,0 0.1,-0.2 0,-0.2 -0.1,0.2 -0.6,0.6 -0.5,0.6 0.1,0.1 0.3,-0.4 0.4,-0.3 -0.1,0.4 -0.7,0.7 -0.9,0.9 -0.2,0.1 -0.3,0.3 -0.5,0.6 -0.3,0.2 -0.5,0.3 -0.6,0.5 -0.2,0.1 -0.2,0 -0.4,0.2 0.1,0.1 -0.5,0.4 -0.7,0.6 -0.1,0 0,0.1 -0.1,0.2 -0.1,0.1 -0.4,0.2 -0.6,0.4 -0.2,0.1 -0.2,0.1 -0.3,0.2 -0.3,0.2 -0.2,0.1 -0.4,0.3 -0.2,0.2 -0.6,0.3 -0.8,0.5 0,0.1 0.1,0.1 0,0.2 -0.5,0.1 -0.8,0.4 -1.2,0.6 -0.3,0.2 -0.9,0.5 -1.1,0.5 -0.1,0 0.1,-0.1 -0.2,0 -0.5,0.2 -1,0.5 -1.6,0.6 -0.1,0.1 0.3,0 0,0.1 -1,0.3 -1.7,0.5 -2.4,0.7 -0.1,-0.1 -0.6,0 -1.1,0 -0.1,0.1 0.3,0.1 0,0.1 -0.5,0.1 -1,0.2 -1.3,0.2 -0.1,0 -0.2,-0.1 -0.4,0 -0.2,0 -0.3,0.1 -0.5,0.1 h -1.2 c -0.2,0 -0.3,-0.1 -0.5,-0.1 -0.3,0 -0.7,-0.1 -1,-0.1 -0.2,0 -0.4,0.1 -0.7,0 -0.2,0 -0.1,-0.1 -0.4,-0.1 -0.1,0.1 -0.2,0.1 -0.3,0 -0.3,0 -1,-0.2 -1.1,-0.2 -0.2,0 -0.4,-0.1 -0.6,-0.2 h -0.4 c -0.1,0 -0.1,-0.1 -0.3,-0.1 C 29.7,60.2 29,60 28.5,59.8 28.4,59.8 28,59.7 28,59.7 27.9,59.7 27.9,59.6 27.8,59.6 27.3,59.4 26.7,59.2 26.2,59 26.1,58.9 26.1,58.9 25.9,58.8 h -0.2 c -0.1,0 -0.3,-0.2 -0.4,-0.2 -0.1,0 -0.2,0 -0.3,-0.1 -0.3,-0.1 -0.4,-0.2 -0.8,-0.5 -0.3,-0.2 -0.7,-0.5 -0.9,-0.6 0,-0.1 0.1,0 0.1,0 -0.2,-0.2 -0.3,-0.1 -0.5,-0.3 -0.2,-0.1 -0.2,-0.2 -0.3,-0.3 -0.2,-0.1 -0.2,-0.1 -0.3,-0.2 -0.1,-0.1 -0.4,-0.4 -0.4,-0.3 0.3,0.2 0.6,0.5 0.8,0.7 0.1,0.1 0.4,0.3 0.3,0.3 -0.2,-0.1 -0.3,-0.2 -0.4,-0.3 -0.3,-0.3 -0.3,-0.3 -0.6,-0.5 0,0 0,-0.1 -0.1,-0.1 -0.2,-0.2 -0.3,-0.2 -0.4,-0.4 -0.1,-0.1 -0.2,0 -0.3,-0.1 -0.3,-0.3 -0.5,-0.5 -0.7,-0.6 L 20.2,55 c -0.2,-0.1 -0.3,-0.1 -0.5,-0.3 -0.3,-0.3 -0.2,-0.5 0.1,-0.2 0.3,0.4 0.6,0.7 0.9,0.9 l -1,-1 c -0.3,-0.2 -0.2,-0.1 -0.5,-0.3 -0.1,0 -0.3,-0.2 -0.3,-0.3 0,0 -0.2,-0.1 -0.2,-0.2 0.1,0 0.5,0.5 0.4,0.2 -0.3,-0.3 -0.4,-0.3 -0.6,-0.5 -0.4,-0.4 -0.7,-0.9 -1.1,-1.4 l -0.3,-0.3 c -0.1,-0.1 -0.2,-0.3 -0.3,-0.5 -0.2,-0.2 -0.3,-0.5 -0.4,-0.4 0,0.1 0.2,0.4 0.3,0.5 v 0.1 l 0.4,0.4 c 0.1,0.4 0.4,0.6 0.7,1 0.1,0.1 0.2,0.4 0.3,0.5 0.4,0.5 0.9,1 1.4,1.5 0.1,0.1 0.2,0.2 0.3,0.4 0.2,0.2 0.4,0.3 0.5,0.4 0.2,0.2 0.4,0.4 0.6,0.5 0.3,0.3 0.7,0.4 1,0.7 l 0.3,0.3 c 0.5,0.4 1.3,1 2,1.4 l 0.6,0.3 c 0.6,0.3 1.3,0.7 1.8,1 0.1,0.1 0.3,0.2 0.5,0.3 0.2,0.1 0.4,0.1 0.6,0.2 0.1,0 0.4,0.2 0.6,0.3 0.5,0.2 0.9,0.3 1.2,0.4 0.1,0 0.2,0.1 0.4,0.2 0.3,0.1 0.5,0.1 0.8,0.2 0.4,0.1 0.7,0.2 1,0.3 h 0.5 c 0.6,0.1 1.2,0.2 1.7,0.3 h 0.5 c 0.4,0 0.8,0.1 1.2,0.1 0.6,0 1.4,-0.1 1.7,-0.1 h 0.5 c 0.1,0 0.1,-0.1 0.3,-0.1 h 0.4 c 0.2,0 0.4,0 0.6,-0.1 0.6,-0.1 1.3,-0.3 1.7,-0.4 0.5,-0.1 0.8,-0.2 1,-0.2 0.4,-0.2 0.8,-0.2 1.2,-0.4 0.3,-0.1 0.6,-0.3 0.8,-0.4 0.1,-0.1 0.2,0 0.4,-0.1 0.3,-0.1 0.6,-0.3 0.9,-0.4 0.1,-0.1 0.4,-0.1 0.5,-0.2 l 0.3,-0.3 c 0.2,-0.1 0.5,-0.3 0.6,-0.4 l 0.3,-0.3 c 0.4,-0.3 1,-0.7 1.4,-0.9 0.2,-0.1 0.3,-0.1 0.4,-0.3 0.3,-0.2 0.5,-0.5 0.8,-0.7 0.2,-0.2 0.4,-0.3 0.6,-0.5 0.8,-0.7 1.5,-1.5 2.1,-2.2 0,0.1 0.2,0 0.4,-0.2 0.1,-0.2 -0.3,0.2 -0.1,-0.2 0.4,-0.4 0.5,-0.6 0.7,-0.9 0.2,-0.4 0.6,-0.9 0.8,-1.3 0.1,-0.2 0.1,-0.3 0.2,-0.4 0.1,-0.2 0.2,-0.3 0.3,-0.4 0.1,-0.1 0.1,-0.3 0.2,-0.4 0.1,-0.1 0.2,-0.2 0.2,-0.3 0.1,-0.2 0,-0.3 0.2,-0.5 0.2,-0.3 0.3,-0.3 0.5,-0.7 0,-0.3 -0.2,0.2 -0.2,0.1 l 0.6,-1.5 c 0,-0.2 0.1,-0.3 0.1,-0.5 0.1,-0.3 0.2,-0.7 0.3,-1 0.1,-0.4 0.1,-0.7 0.1,-1 0,-0.1 0.1,-0.5 0.1,-0.6 v -0.7 c 0,-0.2 0.1,-0.5 0.1,-0.7 v -1 c 0,-0.1 0,-0.2 -0.1,-0.3 -0.1,-0.4 -0.1,-1.1 -0.2,-1.5 v -0.4 c 0,-0.1 -0.1,-0.3 -0.1,-0.5 0,-0.2 -0.1,-0.3 -0.1,-0.5 C 56,38.4 56,38.3 55.9,38.1 55.8,37.7 55.5,36.7 55.5,36.6 V 36.4 C 55.4,36.1 55.3,36.1 55.2,35.8 55.1,35.6 55.1,35.4 55,35.2 54.9,35 54.8,34.9 54.7,34.7 54.4,34.2 54.2,33.8 54.3,33.6 54.1,33.4 54,33 53.8,32.8 53.7,32.6 53.6,32.6 53.5,32.5 53.2,32.2 52.6,31.4 52.2,30.9 52.1,30.8 52.1,30.8 52,30.6 c 0,0 -0.1,0 -0.2,-0.1 V 30.4 C 51.6,30.1 51.1,29.8 51,29.6 50.8,29.4 50.7,29.2 50.5,29.1 50.4,29 50.3,28.8 50.2,28.9 50.3,29 50.4,29.1 50.3,29.1 50,28.9 49.9,28.9 49.7,28.7 49.5,28.5 49.4,28.5 49.3,28.4 L 49.1,28.2 C 49,28.1 48.9,28.1 48.7,28 48.5,27.9 48.3,27.7 48.1,27.6 48,27.5 48,27.6 47.8,27.5 47.6,27.4 47.5,27.3 47.3,27.2 47,27.1 46.8,27.1 46.5,26.9 c 0,-0.1 0.5,0.3 0.4,0.1 -0.3,-0.2 -0.4,-0.2 -0.8,-0.4 0,0.1 -0.2,0 -0.3,0 -0.3,-0.1 -0.4,-0.1 -0.6,-0.2 -0.2,-0.1 -0.3,-0.2 -0.5,-0.2 -0.3,-0.1 -0.6,-0.1 -0.8,-0.2 -0.3,-0.1 -0.4,-0.2 -0.6,-0.2 -0.2,0 -0.6,-0.1 -0.7,-0.1 h -0.4 c -0.7,-0.1 -1.4,-0.2 -2,-0.1 -0.1,0 -0.1,-0.1 -0.3,-0.1 -0.3,0.2 -0.9,0.2 -1.4,0.3 -0.1,0 -0.5,0 -0.6,0.1 0,0 -0.2,0.1 -0.3,0.1 -0.4,0.1 -0.9,0.2 -1.3,0.3 -0.4,0.1 -0.6,0.3 -0.9,0.3 0.2,-0.1 0.5,-0.2 0.5,-0.3 -0.6,0.2 -1.3,0.4 -1.8,0.8 -0.2,0.1 -0.2,0.2 -0.4,0.3 l -0.4,0.2 c -0.6,0.3 -0.6,0.4 -0.9,0.7 -0.1,0.1 -0.1,0.1 -0.3,0.2 -0.3,0.2 -0.7,0.5 -0.8,0.7 v 0.1 c -0.2,0.2 -0.5,0.4 -0.4,0.5 -0.1,0.1 -0.3,0.1 -0.6,0.4 0,0.1 0.3,-0.2 0.2,0 -0.6,0.7 -1,1.2 -1.5,2 -0.2,0.2 -0.3,0.5 -0.4,0.6 L 28.4,33 c -0.2,0.4 -0.1,0.4 -0.2,0.7 -0.1,0.1 -0.3,0.8 -0.4,0.7 0.1,0.2 -0.3,1.2 -0.4,1.9 -0.1,0.3 0,0.6 -0.1,0.8 0,0.1 -0.1,0.2 -0.1,0.4 v 0.9 c 0,0.1 0,0.4 0.1,0.5 0,0.4 0,0.8 0.1,1.2 0.1,0.4 0.2,0.8 0.3,1.1 0,0.2 0,0.4 0.1,0.5 0.1,-0.1 0.1,-0.3 0.2,0.1 0,0.3 -0.1,0.3 0.1,0.8 0.1,0.3 0.1,-0.3 0.2,0.1 0.2,0.9 0.7,1.5 1.1,2.1 0.1,0.1 0,0.1 0,0.2 0.1,0.1 0.2,0.2 0.3,0.4 0.3,0.3 0,0.2 0.3,0.4 0.3,0.3 0.3,0.2 0.6,0.5 0.1,0.1 0,0.1 0.1,0.2 0,0 0.5,0.5 0.6,0.5 0.3,0.2 0.3,0 0.5,0.2 0.4,0.2 0,0.2 0.3,0.4 0.2,0 0,-0.2 0.2,-0.1 0.2,0.2 0.3,0.1 0.5,0.3 l -0.1,0.1 c 0.4,0.2 0.6,0.4 1.2,0.6 -0.2,-0.3 0.6,0.2 0.9,0.1 0.3,0.1 0.2,0.2 0.6,0.3 0.3,0 0.4,0 0.8,0.1 0.2,0 0.3,0.1 0.6,0.2 0.3,0.1 0.8,0.1 0.9,0.1 0.1,0 0.4,-0.1 0.5,-0.1 0.3,0 0.7,0.1 1.1,-0.1 0.3,0 -0.1,-0.1 0.3,-0.2 0.2,0 0.1,0.1 0.1,0.1 0.5,-0.1 0.7,-0.2 1,-0.4 0.1,-0.1 0.3,-0.1 0.5,-0.2 0.3,-0.1 0.5,-0.3 0.9,-0.4 0.1,-0.1 -0.3,0 -0.1,-0.1 0.4,-0.3 0.8,-0.3 1.2,-0.7 0.2,-0.2 0.3,-0.4 0.5,-0.5 0.3,-0.3 0.8,-0.7 1,-0.8 0.3,-0.3 0.6,-0.8 0.8,-1.1 0.1,-0.2 0.3,-0.4 0.4,-0.7 C 46,44 46,43.7 46,43.7 c 0.2,-0.5 0.6,-1.4 0.6,-2.3 v -0.7 c 0,-0.9 -0.2,-2.1 -0.3,-2.7 0,-0.2 0,-0.3 -0.1,-0.4 L 46,37.2 c -0.1,-0.3 -0.2,-0.6 -0.3,-0.7 -0.2,-0.3 -0.4,-0.7 -0.5,-0.9 -0.3,-0.5 -0.6,-1.1 -1.2,-1.4 0.1,0.1 0.2,0.2 0.1,0.2 -0.2,-0.1 -0.3,-0.3 -0.5,-0.4 -0.1,0.1 0.2,0.4 -0.1,0.4 -0.2,-0.1 -0.3,-0.1 -0.6,-0.3 -0.1,0.1 0.4,0.3 0.2,0.4 -0.2,-0.2 -0.6,-0.4 -0.9,-0.6 -0.1,0.1 0.1,0.3 -0.5,0 -0.1,0.1 0.4,0.3 0.1,0.3 C 41.4,33.9 41.4,34.1 41,34 40,33.8 38.9,33.7 38,33.9 l -0.9,0.3 c -0.1,0 -0.2,0 -0.3,0.1 -0.2,0.1 -0.5,0.2 -0.6,0.3 -0.5,0.3 -0.7,0.5 -0.9,0.7 -0.2,0.2 -0.3,0.4 -0.3,0.5 0,0.1 -0.1,0.2 0,0.2 0.1,0.1 0.2,-0.1 0.3,-0.1 0,0 -0.2,0.2 -0.1,0.3 0.3,-0.3 0.2,0 0.3,0 0.1,0 0.4,-0.2 0.4,-0.2 H 36 c 0.2,-0.1 0.6,-0.5 0.9,-0.6 0.1,-0.1 0.2,0 0.2,-0.1 0.4,-0.1 0.5,-0.2 0.7,-0.2 0,0.1 -0.2,0.2 -0.2,0.3 0.3,0 0.6,0 1,-0.1 0.3,0.2 -0.3,0.3 -0.7,0.4 0,0.1 -0.4,0.3 -0.6,0.4 -0.1,0.1 0.2,0.1 0,0.2 -0.3,0.1 -0.5,0.3 -0.7,0.5 -0.1,0.2 -0.3,0.3 -0.4,0.5 -0.1,0.1 -0.1,0.3 -0.2,0.4 0,0.1 -0.1,0.2 -0.1,0.3 v 0.3 c 0,0.1 -0.1,0.2 -0.1,0.3 0,0.3 0,0.7 0.1,1.1 0,0.1 0.1,0.2 0.1,0.2 0,0.1 0,0.2 0.1,0.3 0,0.1 0.1,0.1 0.2,0.2 0,0.1 0.1,0.2 0.2,0.3 0.2,0.2 0.5,0.4 0.7,0.5 0,-0.3 -0.5,-0.4 -0.7,-0.7 -0.1,-0.1 0,-0.2 -0.1,-0.3 -0.1,-0.2 -0.2,-0.5 -0.2,-0.7 0,-0.1 -0.1,0.1 -0.1,-0.1 C 36,39 36,38.9 36.1,38.5 h 0.1 c 0.1,-0.2 0,-0.2 0,-0.4 0.2,0 0.1,-0.3 0.2,-0.5 0.1,-0.2 0.4,-0.6 0.5,-0.6 0.2,-0.1 0.2,-0.2 0.3,-0.4 0.1,-0.1 0.2,-0.2 0.3,-0.2 0,0.1 0.2,0 0.3,0 h 0.4 c 0.1,0 0.2,-0.1 0.3,-0.1 h 0.4 v 0.1 H 39 c 0,0.1 0,0.1 0.1,0.2 0.1,0 0.2,0 0.3,0.1 0.1,0 0.1,0.2 0.2,0.2 0,0 0.1,0.1 0.2,0.1 0,0 -0.1,0 0,0.1 0,0.1 0.1,0 0.2,0 0,0 -0.1,0 0,0.1 0,0 0.1,0 0.1,0.1 h 0.1 v 0.1 h 0.1 c 0,0 0,0.1 0.1,0.1 h 0.2 v 0.1 c 0,0 0.1,0 0.2,0.1 0.1,0.1 0,0.1 0.1,0.2 H 41 l 0.1,0.1 c 0.1,0 0.1,-0.1 0.2,0 0.1,0.1 0,0.1 0.2,0 h 0.1 l 0.1,-0.1 c 0.1,0.1 0.2,0.1 0.3,0.2 0.1,0 0.1,-0.2 0.2,-0.1 0,0.1 0.1,0.3 0.2,0.4 0,0 -0.1,0.1 0,0.1 0,0.1 0.1,0.1 0.1,0.2 v 0.2 c 0,0.1 0.1,0.3 0.1,0.4 0,0 0.1,0 0.1,0.1 v 0.3 c 0.1,0.1 0.2,0.1 0.2,0.2 v 0.2 c 0,0.1 0.1,0 0.1,0.2 0,0.1 -0.1,0.3 -0.1,0.4 V 41 c 0,0.2 -0.1,0.6 -0.2,0.6 v 0.1 l -0.2,0.2 c 0,0.1 0,0.1 -0.1,0.2 -0.1,0.2 -0.2,0.4 -0.4,0.5 l -0.2,0.2 c -0.2,0.2 -0.3,0.4 -0.5,0.4 L 41,43.4 c -0.1,0.1 -0.1,0.2 -0.2,0.3 -0.3,0.2 -0.5,0.1 -0.7,0.2 C 40,43.9 40,44 39.9,44 h -0.6 c -0.1,0.1 -0.4,0.2 -0.5,0.2 -0.1,-0.1 -0.5,0.1 -0.7,0.1 h -0.7 c -0.5,0 -0.7,-0.2 -1,-0.3 H 36 C 35.9,44 35.8,43.8 35.7,43.8 35.6,43.7 35.3,43.6 35.1,43.4 35,43.3 35,43.2 34.9,43.1 34.8,43 34.7,43 34.6,42.9 c -0.1,-0.1 -0.2,-0.2 -0.2,-0.3 -0.1,-0.1 -0.1,0 -0.2,-0.1 -0.1,-0.1 -0.4,-0.3 -0.5,-0.3 0,0 -0.1,-0.3 -0.2,-0.3 h 0.1 c -0.1,-0.1 0,-0.2 -0.1,-0.3 C 33.4,41.5 33.3,41.4 33.2,41.2 33.1,41.1 33.1,41 33,41 c -0.1,-0.1 0,-0.1 0,-0.3 -0.1,0 0,0.1 -0.1,0 0.1,-0.2 -0.2,-0.5 -0.2,-0.7 -0.1,-0.3 -0.1,-0.7 -0.2,-1.1 -0.1,-0.1 -0.3,-0.3 -0.2,-0.5 0,0 0,0.1 0.1,0.1 0,-0.5 -0.1,-0.4 -0.1,-0.8 0.1,0 0.1,0.1 0.1,0.1 0,0 0,-0.2 0.1,-0.2 0,0.2 0.1,0.6 0.1,0.7 v 0.2 c 0,0.1 0.1,0.1 0.1,0.2 0,0.3 0.1,0.6 0.2,0.9 0,0.1 0.1,0.2 0.1,0.2 0.1,0.2 0.1,0.3 0.1,0.5 0.2,0.3 0.4,0.7 0.6,1 0,0 0.1,0.1 0.2,0.1 l 0.3,0.3 c 0.1,0.1 0.2,0.1 0.3,0.1 v 0.1 c 0,0 0.1,0 0.1,0.1 0,-0.3 0.3,0 0.4,-0.1 -0.2,-0.1 -0.2,-0.3 -0.4,-0.5 -0.1,-0.1 -0.2,-0.1 -0.3,-0.2 0,-0.1 -0.1,-0.2 -0.1,-0.2 -0.1,-0.2 -0.1,-0.2 -0.2,-0.3 0,-0.1 0,-0.1 -0.1,-0.1 -0.1,-0.1 -0.1,-0.3 -0.2,-0.3 -0.1,-0.1 -0.3,-0.6 -0.3,-0.7 v -0.3 c 0,-0.1 -0.1,-0.2 -0.1,-0.2 0,-0.2 -0.1,-0.4 -0.1,-0.6 v -0.3 c 0,-0.1 -0.1,-0.2 -0.1,-0.3 0,-0.4 0.1,-1 0.2,-1.5 0,-0.2 0.1,-0.4 0.1,-0.5 l 0.3,-0.6 c 0.1,-0.2 0.1,-0.4 0.2,-0.5 0.1,-0.1 0.3,-0.3 0.4,-0.5 0.1,-0.2 0.3,-0.4 0.5,-0.6 0.2,-0.3 0.4,-0.3 0.5,-0.5 l 0.4,-0.4 c 0.1,-0.1 0.2,-0.1 0.3,-0.2 0.1,-0.1 0.1,-0.2 0.3,-0.3 0,0 0.1,0 0.2,-0.1 0.1,0 0,0.1 0.1,0.1 0.2,-0.1 0,-0.2 0.2,-0.3 0.2,0 0.2,-0.1 0.3,-0.1 0.1,0 0.1,0.1 0.2,0 0.2,-0.1 -0.1,-0.1 0.1,-0.2 0.2,0 0.4,-0.2 0.7,-0.2 h 0.3 c 0.1,0 0.1,0 0.2,-0.1 h 0.3 c 0.1,0 0.2,-0.1 0.3,-0.1 h 0.1 c 0.3,0.1 0.8,-0.2 0.9,-0.2 l -0.1,0.1 c 0.2,0 0.3,-0.2 0.4,-0.1 h -0.2 c 0.3,0.1 0.3,-0.1 0.6,-0.1 h 0.6 c 0.2,0 0.6,0.1 0.7,0.1 0.1,0 0.2,0.1 0.2,0.2 0.1,0 0.5,0.2 0.6,0.2 h 0.2 c 0,0 0,0.1 0.1,0.1 h 0.1 c 0.1,0 0.1,0.1 0.2,0.1 0.1,-0.1 0.4,0.1 0.7,0.3 0.7,0.4 1.5,1 1.9,1.4 0,0 -0.1,0.1 0,0.1 0.1,0 0,-0.1 0.1,0 0.1,0 0.3,0.2 0.4,0.3 0.1,0.1 0,0 0,0.1 0,0.1 0.4,0.5 0.5,0.5 0,0 0,0.1 0.1,0.2 0.2,0.3 0.3,0.4 0.5,0.5 0,0.1 0.1,0.2 0.1,0.3 0,0.1 0.1,0.1 0.2,0.2 0,0.1 0,0.1 0.1,0.2 0,0.1 0.1,0.1 0.1,0.2 0.1,0.1 0,0.1 0.1,0.2 0,0.1 0.1,0.1 0.1,0.2 0.1,0.2 0.1,0.3 0.1,0.4 0,0.1 0.1,0.2 0.1,0.3 v 0.3 c 0,0.1 0.1,0.2 0.1,0.3 0,0.2 0.1,0.4 0.1,0.5 0,0.1 0.1,0.1 0.1,0.2 0.1,0.2 0.1,0.6 0.2,0.9 v 0.6 c 0,0.3 0.1,0.4 0.1,0.5 0,0.1 -0.1,0.2 -0.1,0.4 0,0.1 0.1,0.3 0,0.4 v 0.4 c 0,0.1 0,0 -0.1,0.1 -0.1,0.1 0,0.4 -0.1,0.6 -0.1,0.4 -0.2,0.9 -0.3,1.2 0,0.1 0,0.2 -0.1,0.3 0,0.1 -0.1,0.1 -0.1,0.2 -0.4,0.7 -0.5,0.9 -0.5,1 l -0.1,0.1 c 0,0.1 0,0.2 -0.1,0.3 -0.1,0.1 -0.2,0.2 -0.2,0.3 -0.1,0.1 0,0.2 -0.1,0.3 -0.2,0.2 -0.1,0.3 -0.2,0.4 0,0.1 -0.1,0.1 -0.2,0.2 0,0.1 -0.1,0.2 -0.1,0.3 -0.2,0.4 -0.3,0.3 -0.5,0.5 0,0 -0.1,0.1 -0.1,0.2 l -0.3,0.3 -0.2,0.2 c -0.2,0.2 -0.5,0.5 -0.8,0.7 C 45,49 45,49 44.9,49 c -0.3,0.1 -0.5,0.3 -0.7,0.5 -0.1,0.1 -0.2,0 -0.3,0.1 -0.3,0.2 -0.5,0.7 -0.7,0.6 0.1,-0.1 0.4,-0.2 0.3,-0.3 -0.6,0.4 -1.1,0.8 -1.6,0.9 -0.1,-0.1 0.2,-0.1 0.1,-0.2 -0.2,0 -0.6,0.3 -0.7,0.2 0,0.2 -0.4,0.2 -0.5,0.3 0.2,0 -0.3,0.1 -0.4,0.2 0,-0.1 0.1,-0.2 -0.1,-0.2 -0.2,0.1 -0.5,0.2 -0.6,0.3 -0.1,0 0,0.1 -0.1,0.1 h -0.4 c -0.2,0 -0.5,0.2 -0.5,0.1 0,-0.1 0.2,-0.1 0.2,-0.2 h -0.7 c -0.1,0 -0.1,0.1 -0.2,0.1 -0.1,0 -0.6,0.1 -0.6,0.1 l 0.1,-0.1 c -0.1,-0.1 -0.1,0.1 -0.2,0.1 0,0 0,-0.1 -0.1,-0.1 H 37 c -0.2,0 -0.2,0.2 -0.3,0.1 0,0 0.1,0 0.1,-0.1 -0.2,0 -0.5,-0.1 -0.9,-0.1 -0.1,0.1 0.3,0 0.2,0.1 -0.3,0 -0.2,-0.1 -0.4,-0.1 -0.1,-0.1 0.1,-0.1 -0.2,-0.1 -0.1,0 -0.1,0.1 -0.2,0.1 0,-0.1 -0.2,0 -0.2,0 -0.1,0 -0.2,-0.1 -0.3,-0.1 h -0.1 c -0.1,0 -0.2,0 -0.2,-0.1 0,-0.1 0.2,0 0.3,0 C 34.7,51 34.2,51.1 34,51 33.9,51 33.8,50.9 33.6,50.8 h -0.2 c -0.3,-0.1 -0.4,-0.1 -0.6,-0.1 0,-0.2 -0.5,-0.2 -0.7,-0.3 0,0 -0.1,-0.1 -0.2,-0.1 -0.1,-0.1 -0.3,-0.1 -0.4,-0.2 0,0 -0.1,-0.1 -0.2,-0.1 -0.3,-0.2 -0.4,-0.2 -0.4,-0.3 0,-0.1 -0.3,-0.2 -0.3,-0.2 -0.1,-0.1 -0.1,-0.1 -0.2,-0.1 -0.1,0 -0.1,0 -0.2,-0.1 -0.1,0 -0.1,-0.1 -0.2,-0.2 h -0.1 c -0.2,-0.1 -0.5,-0.4 -0.7,-0.6 -0.1,0 0,0.2 -0.3,0 -0.1,-0.2 0.1,0.1 0.2,0 -0.3,-0.2 -0.4,-0.3 -0.5,-0.4 -0.1,0 -0.1,0 -0.2,-0.1 -0.1,-0.1 -0.1,-0.1 -0.1,-0.2 L 27.6,47.1 C 27.5,47 27.3,46.9 27.2,46.8 26.9,46.5 26.8,46.3 26.5,46 l 0.1,-0.1 c -0.1,-0.2 -0.2,-0.1 -0.3,-0.2 0.1,-0.2 -0.1,-0.3 -0.3,-0.5 0,0 -0.1,-0.1 -0.1,-0.2 -0.1,-0.2 -0.2,-0.3 -0.3,-0.4 0,-0.2 0.2,0.1 0.1,-0.1 C 25.5,44.3 25.5,44.1 25.3,43.9 25.2,43.8 25.1,43.8 25.1,43.6 25,43.4 25,43.2 24.9,43.1 24.8,43 24.7,42.9 24.7,42.8 24.6,42.5 24.5,42.1 24.3,41.8 24.2,41.5 24,41.1 24,40.8 v -0.4 c 0,-0.1 -0.1,-0.2 -0.1,-0.3 -0.1,-0.5 -0.1,-0.8 -0.1,-1.1 0,-0.1 0,-0.2 -0.1,-0.3 v -0.2 c 0,-0.1 -0.1,-0.2 -0.1,-0.3 0,-0.1 0.1,-0.1 0.1,-0.3 0,-0.1 -0.1,-0.2 -0.1,-0.3 v -1.2 c 0,-0.2 0.1,-0.3 0.1,-0.5 v -0.4 c 0,-0.1 0.1,-0.1 0.1,-0.2 v -0.2 c 0,0 0,-0.2 0.1,-0.2 v -0.1 c 0,0 0.1,-0.1 0.1,0 v -0.3 c 0,-0.1 0.1,-0.2 0.1,-0.3 v -0.3 c 0.1,-0.2 0.2,-0.4 0.3,-0.5 0.1,-0.3 0.1,-0.6 0.2,-1 0.1,-0.4 0.3,-0.8 0.4,-1.1 0.1,-0.2 0.1,-0.5 0.2,-0.7 0.3,-0.7 0.9,-1.4 0.9,-1.8 0,0.1 -0.1,-0.1 -0.1,-0.1 v -0.2 h -0.2 c -0.2,-0.1 0,-0.1 -0.3,0 -0.2,0.1 -0.2,0.1 -0.4,0.4 -0.1,0 -0.2,0.1 -0.2,0.1 h -0.1 c 0,0.1 -0.1,0.2 -0.2,0.3 0,0.1 -0.1,0.1 -0.2,0.2 0,0 0,0.2 -0.1,0.2 -0.1,0.1 -0.2,0.2 -0.2,0.3 -0.1,0.1 -0.1,0.2 -0.1,0.3 -0.1,0.2 -0.3,0.4 -0.4,0.7 v 0.2 c -0.1,0.1 -0.2,0.3 -0.3,0.5 -0.1,0.1 -0.1,0.3 -0.1,0.5 0,0.1 -0.1,0.2 -0.1,0.3 v 0.4 c 0,0.1 -0.1,0.1 -0.2,0.2 0,0.2 0,0.4 -0.1,0.6 0,0.1 -0.1,0.2 -0.1,0.2 v 0.2 c 0,0.1 -0.1,0.1 -0.1,0.2 0.1,0.2 0,0.3 -0.1,0.5 V 35 c 0,-0.1 0.1,-0.3 0,-0.3 0,0.3 0,0.4 0.1,0.6 -0.1,0 0,0.3 -0.1,0.4 0,0.1 -0.1,0.1 -0.1,0.2 0,0.3 0.1,0.6 0,0.8 -0.1,0 0,-0.3 -0.1,-0.2 0,0.2 0.1,0.2 0.1,0.4 v 0.4 c 0,0.1 0.1,0.2 0.1,0.3 V 38 c -0.1,0 -0.1,-0.2 -0.1,-0.2 0.1,0.3 0.1,0.8 0.1,0.8 0,0.1 0,0 0.1,0.1 0.1,0.4 0,0.4 0.1,0.7 0,0.1 0.1,0.2 0.1,0.3 0,0.2 -0.1,0.3 0,0.5 0,-0.1 0,-0.1 0.1,0 0,0.1 -0.1,0.2 0,0.4 0,0.2 0.2,0.4 0.2,0.6 v 0.4 c 0,0 0.1,0.2 0.1,0.3 0,0.1 0.1,0.1 0.1,0.2 -0.1,0.1 -0.1,-0.2 -0.2,-0.2 0.1,0.4 0.3,0.8 0.4,1.1 0.1,0.1 0,-0.1 0.1,0 0.1,0.2 0.2,0.6 0.3,0.7 l 0.1,0.1 c 0,0.1 0,0.1 0.1,0.2 0.1,0.2 0.3,0.4 0.4,0.6 0,0.1 0,0.1 0.1,0.2 0.1,0.3 0.4,0.5 0.4,0.8 l -0.1,-0.1 c 0.1,0.3 0.3,0.7 0.6,0.9 0,0 0.1,0 0.2,0.1 0.1,0.1 0.2,0.2 0.2,0.3 0.1,0.1 0.2,0.2 0.2,0.3 C 26,47.2 25.9,47 25.8,47 c 0.2,0.3 0.3,0.2 0.4,0.3 0.3,0.2 0.2,0.4 0.4,0.5 0.1,0.2 0.3,0.3 0.4,0.4 -0.2,-0.1 -0.5,-0.5 -0.8,-0.8 0,0 0.1,-0.1 0,-0.2 -0.1,-0.1 -0.1,0 -0.2,-0.1 C 25.9,47 25.6,46.6 25.4,46.2 L 25.1,45.9 C 25,45.8 25,45.7 25,45.6 24.9,45.5 24.8,45.2 24.7,45.2 24.6,45.1 24.5,45.1 24.4,45 24.3,44.9 24.5,44.9 24.3,44.7 24,44.6 24.1,44.2 23.8,43.9 c 0,0 0.1,0.1 0.1,0 -0.2,-0.2 -0.4,-0.5 -0.5,-0.7 -0.1,-0.2 0,-0.2 -0.1,-0.3 0,0 -0.1,-0.1 -0.1,-0.2 v -0.3 c 0,0 -0.1,-0.3 -0.1,-0.2 C 23,42 22.8,41.8 22.7,41.6 v -0.3 c -0.1,-0.3 -0.2,-0.5 -0.3,-0.8 0,0 0.2,0.2 0.1,-0.1 -0.1,-0.3 -0.1,-0.1 -0.2,-0.2 0,-0.2 -0.1,-0.5 -0.2,-0.7 v -0.3 c 0,0 0,-0.1 -0.1,-0.1 v -0.2 c 0,-0.2 -0.1,-0.3 -0.1,-0.4 v -0.2 c 0,-0.3 -0.1,-0.5 -0.1,-0.8 0,-0.1 0.1,-0.2 0.1,-0.3 0,-0.3 -0.1,-0.7 -0.1,-1.1 v -0.3 c 0,-0.4 0,-1.1 0.1,-1.4 v -0.3 c 0,-0.1 0.1,0 0.1,-0.2 v -0.4 c 0,-0.1 0.1,-0.2 0.1,-0.3 0.1,-0.3 0.1,-0.7 0.1,-0.9 0,-0.1 0.1,-0.1 0.1,-0.2 v -0.4 c 0.1,-0.2 0.1,-0.2 0.1,-0.3 0,-0.1 0,-0.2 0.1,-0.3 l 0.1,-0.2 c 0.1,-0.3 0.1,-0.3 0.2,-0.3 0,-0.4 0.1,-0.8 0.3,-1.2 0,-0.1 0,0 0.1,0 0.1,-0.1 0.2,-0.4 0.3,-0.6 0.1,-0.2 0.3,-0.3 0.4,-0.5 0,0 -0.1,0.1 -0.1,0 0.1,-0.2 0.3,-0.5 0.4,-0.7 0.1,-0.1 0,-0.3 0.1,-0.4 0,0 0.2,-0.3 0.3,-0.4 0.2,-0.2 0.4,-0.6 0.6,-0.9 l 0.2,-0.2 c 0.1,-0.1 0.1,-0.2 0.2,-0.3 l 0.2,-0.2 c 0.1,-0.1 0.1,-0.1 0.1,-0.2 l 0.3,-0.3 c 0.1,-0.1 0.1,-0.1 0.1,-0.2 l 0.3,-0.3 c 0.1,-0.1 0.2,-0.3 0.3,-0.4 0.1,-0.1 0.3,-0.2 0.4,-0.4 0.2,-0.2 0.4,-0.5 0.6,-0.7 0.1,-0.1 0.1,0 0.2,-0.1 0.1,-0.1 0.1,-0.2 0.2,-0.2 0,0 0.1,0 0.2,-0.1 0.1,-0.1 0.3,-0.4 0.4,-0.5 0.2,0 0.2,-0.1 0.4,-0.3 0.3,-0.2 0.5,-0.4 0.7,-0.5 0.3,-0.2 0.8,-0.4 1.1,-0.7 0.2,-0.2 0.3,-0.2 0.5,-0.3 0.2,-0.1 0.4,-0.3 0.7,-0.4 0.7,-0.4 1.5,-0.7 2.3,-1.1 -0.1,-0.1 -0.4,0.1 -0.5,0 0.1,-0.1 0.5,-0.3 0.7,-0.3 0.2,0 0,0.1 0,0.2 0.3,0 0.6,-0.2 0.9,-0.3 H 36 V 18 c 0.2,-0.2 0.6,-0.2 0.8,-0.3 0.3,-0.1 0.7,-0.2 1.1,-0.3 h 0.4 l 0.2,-0.1 h 0.3 c 0.1,0 0.3,-0.1 0.3,-0.2 -0.2,-0.1 -0.4,0.1 -0.5,0 0.3,-0.1 0.7,-0.1 0.9,-0.2 0.2,0 0.3,-0.1 0.4,-0.1 h 0.3 c 0.3,0 0.7,-0.1 0.9,-0.1 0.4,-0.1 1.1,0 1.3,-0.1 0.1,0 0.2,-0.1 0.3,-0.1 0.3,-0.1 0.4,0 0.7,0 h 0.5 c 0,0 0.1,0.1 0.1,0 -0.1,0 -0.1,0 -0.1,-0.1 0.3,0 0.6,0.1 0.3,0.2 0.2,0 0.3,-0.1 0.5,-0.1 0,0 0.4,0.2 0.2,0.2 -0.2,0 -0.2,-0.1 -0.3,-0.1 0,0.2 0.5,0.2 0.8,0.2 0.1,0 0.2,-0.1 0.3,-0.1 0.2,0 0.2,0.1 0.3,0 0.1,-0.1 -0.4,-0.1 -0.4,-0.2 0.4,0.1 1.1,0.1 1.3,0.3 h -0.3 c 0.4,0 0.7,0.2 0.8,0.1 -0.1,-0.1 -0.4,0 -0.4,-0.2 h 0.3 c 0.1,0 0.3,0.1 0.3,0 -0.2,-0.1 -0.5,-0.1 -0.7,-0.1 -0.1,-0.1 -0.5,-0.2 -0.8,-0.2 -0.2,0 -0.5,-0.1 -0.6,-0.1 H 45.2 C 45,16.3 45,16.2 44.9,16.2 H 44 c -0.5,0 -0.9,-0.1 -1.4,-0.1 h -1 c -0.1,0 -0.2,0.1 -0.3,0.1 h -0.4 c -0.2,0 -0.5,0 -0.7,0.1 -0.1,0 -0.2,0.1 -0.3,0.1 h -0.4 c -0.4,0 -0.9,0.2 -1.1,0.2 h -0.6 c -0.2,0.1 -0.5,0.1 -0.8,0.2 -0.1,0 -0.2,0 -0.3,0.1 -0.1,0 -0.1,0.1 -0.2,0.1 -0.1,0 -0.2,0 -0.3,0.1 -0.3,0.1 -0.6,0.3 -0.8,0.3 h -0.3 c -0.2,0.1 -0.4,0.1 -0.6,0.2 0.1,-0.1 -0.1,-0.1 -0.2,0 -0.3,0.1 -0.3,0.2 -0.5,0.3 -0.1,0 -0.3,0.1 -0.4,0.1 -0.1,0 -0.1,0.1 -0.2,0.2 -0.1,0 -0.3,0.1 -0.4,0.2 -0.2,0.1 -0.4,0.2 -0.5,0.3 -0.1,0 -0.2,0 -0.3,0.1 -0.2,0.1 -0.4,0.3 -0.6,0.4 -0.1,0.1 -0.3,0.2 -0.4,0.3 h -0.1 c -0.2,0 -0.6,0.4 -0.9,0.6 -0.4,0.2 -1.4,1.1 -1.6,1.2 -0.2,0.1 -0.2,0.2 -0.4,0.4 -0.3,0.3 -0.8,0.7 -1.2,1.1 -0.2,0.2 -0.5,0.4 -0.7,0.7 -0.2,0.2 -0.3,0.4 -0.5,0.6 -0.1,0.1 -0.3,0.2 -0.4,0.4 -0.2,0.2 -0.4,0.5 -0.5,0.6 -0.1,0.1 -0.2,0.1 -0.3,0.3 0,0.3 -0.3,0.5 -0.5,0.8 0.1,0.8 0.1,0.9 0.1,1 -0.1,0.2 -0.3,0.4 -0.4,0.5 0,0.1 0,0.2 -0.1,0.2 0,0.1 -0.2,0.2 -0.2,0.2 v 0.1 c -0.1,0.1 -0.2,0.2 -0.2,0.3 0,0.1 0.2,0 0.1,0.2 0,0.1 -0.1,0.1 -0.1,0.1 -0.1,0 0,0 -0.1,0.1 -0.2,0.2 -0.2,0.5 -0.3,0.8 0,0.1 -0.1,0.2 -0.2,0.3 0,0.1 0,0.2 -0.1,0.3 -0.1,0.3 -0.3,0.6 -0.4,0.9 -0.1,0.2 -0.1,0.3 -0.1,0.5 0,0.1 -0.1,0.2 -0.2,0.4 -0.1,0.4 -0.3,1.1 -0.3,1.4 0,0.1 0.1,0.1 0,0.2 0,0.2 -0.1,0 -0.1,0.2 v 0.4 c -0.2,0.3 -0.1,0.6 -0.2,0.9 v 2 c 0,0.1 0.1,0.2 0.1,0.3 v 0.6 c 0,0.3 0.1,0.7 0.2,1.1 v 0.5 c 0,0.2 0.1,0.4 0.2,0.6 0,0.2 0.1,0.4 0.1,0.4 0,0.1 0.1,0.2 0.1,0.3 0.1,0.3 0.1,0.6 0.2,0.8 0,0.1 0.1,0.2 0.2,0.3 0.1,0.2 0.1,0.3 0.1,0.5 0.1,0.4 0.3,0.8 0.5,1.2 0,0.1 0.1,0.2 0.2,0.3 0,0.1 0,0.2 0.1,0.3 l 0.6,0.9 c 0,0.1 0.1,0.2 0.2,0.3 0.1,0.1 0.2,0.3 0.3,0.4 0.1,0.1 0.2,0.3 0.3,0.4 0,0.1 0.1,0.3 0.1,0.4 -0.2,-0.3 -0.5,-0.6 -0.6,-0.9 -0.6,-0.8 -1.2,-2 -1.5,-2.8 0,-0.1 -0.1,-0.2 -0.2,-0.2 v -0.1 c 0,-0.1 0,0 -0.1,-0.1 -0.1,-0.3 -0.2,-0.5 -0.3,-0.5 -0.1,-0.2 -0.2,-0.5 -0.2,-0.6 -0.1,0.1 -0.2,0.1 -0.3,0.2 -0.1,-0.4 -0.1,-0.6 -0.3,-0.7 0,-0.1 0,-0.1 -0.1,-0.2 v -0.3 c 0,-0.1 -0.1,-0.1 -0.1,-0.3 v -0.6 c -0.1,-0.1 0,0.3 -0.1,0.1 0,-0.3 0,-0.5 -0.1,-0.7 v -0.2 c 0,-0.1 -0.1,-0.2 -0.1,-0.3 0,-0.3 0.1,-0.5 0,-0.7 0,-0.1 -0.1,-0.3 -0.1,-0.5 v -0.3 c -0.1,-0.1 -0.1,-0.2 -0.1,-0.3 0.1,-0.2 0,-0.4 0,-0.6 0,-0.2 0.1,-0.9 0.1,-0.9 0,-0.1 -0.1,-0.2 0,-0.3 0,0 0.1,-0.1 0.1,-0.2 v -0.3 c 0,-0.2 0.1,-0.3 0.1,-0.5 v -0.3 c 0,-0.3 0.1,-0.6 0.2,-0.8 0,-0.2 -0.1,-0.5 0.1,-0.5 v 0.1 c 0.1,-0.3 0.1,-0.6 0,-0.6 0.1,0 0.1,-0.1 0.1,-0.2 0,-0.1 0.1,-0.4 0.2,-0.5 v -0.3 c 0.1,-0.2 0.1,-0.3 0.2,-0.5 0.1,-0.4 0.3,-0.8 0.4,-1.1 C 22,29.2 22,29.1 22.1,29 v -0.2 c 0,-0.1 0.1,-0.1 0.1,-0.2 0,-0.1 0,-0.2 0.1,-0.3 0.1,-0.1 0.2,-0.2 0.2,-0.3 -0.1,-0.1 -0.2,0.4 -0.3,0.2 0.2,-0.5 0.4,-0.6 0.5,-1 0.1,-0.1 0.1,0.1 0.1,0 0,-0.1 0.1,-0.4 0.2,-0.6 0.2,-0.3 0.4,-0.6 0.6,-0.8 0.1,0 -0.3,0.4 -0.1,0.3 0.2,-0.2 0.3,-0.5 0.5,-0.7 0.1,-0.2 0.3,-0.2 0.4,-0.4 0.1,-0.2 -0.2,0.1 -0.2,0.1 0,-0.1 0.2,-0.3 0.3,-0.5 0.1,-0.1 0,-0.2 0.1,-0.3 0,0 0.1,-0.1 0.2,-0.1 0.1,-0.1 0.2,-0.3 0.2,-0.2 -0.3,0.3 -0.6,0.6 -0.4,0.8 0.5,-0.8 1.2,-1.5 1.9,-2.2 0,-0.2 -0.3,0.1 -0.3,0 l 0.3,-0.4 c 0,0 -0.1,0.2 0,0.2 0.8,-1 1.9,-1.5 2.5,-2.2 0,0.1 0.2,-0.1 0.2,0 -0.1,0.1 -0.3,0.2 -0.2,0.2 0.2,-0.1 0.5,-0.3 0.7,-0.5 0.2,-0.1 0.3,-0.3 0.3,-0.3 0.1,-0.1 0.2,-0.1 0.3,-0.2 0,0 0.1,-0.1 0.1,-0.2 0.1,-0.1 0.2,-0.1 0.2,-0.1 l 0.2,-0.2 0.6,-0.3 c 0.2,-0.1 -0.2,0 0.1,-0.2 0.1,0 0.2,0 0.3,-0.1 h 0.1 c 0.1,0 0.1,-0.1 0.2,-0.1 0.2,-0.1 0.5,-0.1 0.6,-0.2 0.2,-0.1 0.4,-0.2 0.5,-0.3 h 0.1 c 0,0 0.1,-0.1 0.2,-0.1 0.1,0 0.2,0 0.3,-0.1 0.1,0 0,-0.1 0.1,-0.1 0,0 0.2,0 0.3,-0.1 0.1,-0.1 -0.2,0 -0.1,-0.1 0.3,-0.1 0.5,-0.1 0.7,-0.2 0.2,-0.1 0.3,-0.2 0.4,-0.2 0,0 0,0.1 0.1,0.1 0,0 0.1,-0.2 0.2,-0.2 0.1,0 0,0 0,0.1 0.3,-0.1 0.5,-0.2 0.8,-0.3 0.5,-0.2 1.2,-0.2 1.4,-0.4 h -0.1 c 0.2,0 0.4,-0.1 0.6,-0.2 h 0.4 c 0.1,0 0.1,-0.1 0.3,-0.1 0,0.1 -0.1,0.1 0,0.1 0.2,0 0.3,-0.1 0.5,-0.1 h 0.3 c 0.5,-0.1 1,-0.2 1.4,-0.2 h 0.5 l 0.1,-0.1 h 0.2 c 0.2,0 0.4,0 0.6,0.1 h 1.4 c 0.4,0 0.8,0 1.3,0.1 0.3,0 0.7,0.1 1,0.2 0.3,0 0.5,0 0.8,0.1 0.1,0 0.3,0.1 0.4,0.1 h 0.3 c 0.6,0.1 1.4,0.4 2,0.6 0.1,0 0.2,0 0.3,0.1 0.2,0.1 0.5,0.3 0.5,0.1 -0.4,-0.2 -0.7,-0.2 -1.1,-0.4 -0.6,-0.2 -1.3,-0.4 -1.8,-0.5 h -0.3 c -0.1,0 -0.2,-0.1 -0.3,-0.1 -0.2,-0.1 -0.5,-0.1 -0.5,-0.1 -0.1,0 -0.1,-0.1 -0.2,-0.1 H 46 c -0.4,0 -0.9,-0.1 -0.9,-0.2 0.3,0 0.7,0.1 0.9,0.1 0.2,0 0.4,0 0.7,0.1 0.1,0 0.1,0 0.1,0.1 0.4,0.1 1.2,0.2 1.6,0.4 0.3,0.1 0.5,0.2 0.7,0.2 0.2,0.1 0.4,0.1 0.7,0.2 0.2,0.1 0.4,0.2 0.6,0.2 0.1,0 0.2,0 0.3,0.1 0.1,0 0.4,0.2 0.4,0.1 -0.3,-0.1 -0.5,-0.2 -0.8,-0.3 -0.1,0 -0.2,0 -0.3,-0.1 -0.1,0 -0.1,-0.1 -0.3,-0.1 C 49.5,16.4 49.2,16.4 48.9,16.3 48,16 46.9,15.7 46.3,15.7 H 46 c -0.1,0 -0.3,-0.1 -0.5,-0.2 h -0.6 c -0.6,0 -1.5,-0.2 -2.4,-0.2 h -2.1 c -0.1,0 -0.2,0.1 -0.3,0.1 h -0.3 c -0.1,0 -0.2,0.1 -0.3,0.1 h -0.2 c -0.1,0 -0.1,0 -0.2,0.1 h -0.5 c -0.2,0 -0.6,0.1 -0.9,0.2 h -0.4 c -0.2,0 -0.4,0.1 -0.5,0.1 -0.1,0 -0.3,0 -0.4,0.1 -0.1,0 -0.1,0.1 -0.3,0.2 -0.1,0 -0.2,0 -0.3,0.1 -0.2,0.1 -0.4,0.2 -0.6,0.2 -0.3,0.1 -0.6,0.2 -1,0.3 -0.1,0 -0.3,0.1 -0.4,0.2 -0.1,0 -0.3,0.1 -0.4,0.1 -0.5,0.2 -1,0.5 -1.4,0.6 -0.1,0 -0.2,0.1 -0.3,0.1 l -0.6,0.3 c -0.1,0 -0.2,0.1 -0.3,0.1 -0.1,0.1 -0.2,0.2 -0.3,0.2 -0.2,0.1 -0.6,0.2 -0.7,0.3 -0.3,0.2 -0.3,0.3 -0.6,0.4 l -0.4,0.2 c -0.1,0.1 -0.3,0.2 -0.4,0.3 0.6,0.4 0.6,0.5 0.5,0.5 -0.4,0.3 -0.5,0.3 -0.7,0.4 -0.1,0.1 -0.2,0.3 -0.3,0.4 -0.1,0.1 -0.3,0.2 -0.4,0.2 -0.1,0.1 -0.2,0.2 -0.2,0.3 l -0.2,0.2 -0.6,0.6 c -0.1,0.1 -0.2,0.1 -0.2,0.2 -0.1,0.1 -0.2,0.2 -0.2,0.3 -0.1,0.1 -0.2,0.1 -0.3,0.2 0,0 -0.1,0.1 -0.1,0.2 -0.1,0.1 -0.3,0.4 -0.4,0.5 -0.1,0.1 -0.4,0.5 -0.4,0.5 -0.1,0.1 -0.2,0.1 -0.3,0.2 l -0.1,0.2 c 0,0.1 -0.1,0 -0.1,0.1 0,0 0,0.1 -0.1,0.1 -0.3,0.4 -0.6,0.6 -0.7,0.9 -0.1,0.1 -0.1,0.3 -0.2,0.3 0,0 -0.1,0 -0.2,0.1 -0.2,0 -0.2,0.1 -0.3,0.2 0,0.1 -0.1,0.1 -0.2,0.2 -0.2,0.3 -0.3,0.5 -0.4,0.7 0,0.1 -0.2,0.2 -0.2,0.3 -0.1,0.3 0,0.2 -0.2,0.3 -0.1,0.1 -0.3,0.6 -0.5,1 -0.1,0.2 -0.3,0.4 -0.4,0.6 0,0.1 0,0.3 -0.1,0.4 -0.1,0.4 -0.3,1 -0.5,1.4 0,0.1 -0.1,0.2 -0.1,0.3 -0.1,0.2 -0.2,0.6 -0.2,0.8 0,0.1 0.1,0.2 0,0.3 0,0.2 -0.1,0.3 -0.2,0.5 0,0.2 -0.1,0.5 -0.1,0.6 0,0.1 -0.1,0.1 -0.1,0.2 -0.1,0.3 -0.1,0.6 -0.1,0.8 0,0.4 -0.1,0.7 -0.1,0.9 v 0.9 c 0,0.1 -0.1,0.3 0,0.5 v 0.5 c 0,0.1 0.1,0.3 0.1,0.4 0,0.2 0,0.4 0.1,0.6 0,0.3 0.1,1.1 0.1,1.3 l 0.1,0.1 V 40 c 0,0.3 0.1,0.4 0.1,0.6 0,0.3 0.1,0.8 0.2,1 -0.1,0.3 0.1,0.4 0.2,0.7 0.2,0.3 0.1,0.4 0.2,0.7 0.1,0.2 0.1,0.4 0.2,0.5 h -0.1 c 0,0.2 0.3,0.6 0.4,0.7 0.1,0.1 0.1,0.3 0.1,0.4 l 0.2,0.2 0.6,1.2 c 0.1,0.1 0.2,0.2 0.2,0.3 0.1,0.1 0,0.2 0.1,0.3 0.1,0.1 0.1,0.2 0.2,0.3 0,0.1 -0.1,0 -0.1,0.1 0,0.1 0.2,0.3 0.2,0.3 -0.1,0 -0.3,-0.3 -0.4,-0.4 C 22,46.7 21.8,46.4 21.7,46.2 21.6,46.1 21.6,45.9 21.6,45.8 21.4,45.4 21.3,45.4 21.2,45.2 21.1,45.1 21.1,44.9 21,44.8 V 45 c -0.2,-0.3 -0.1,-0.5 -0.2,-0.6 0,-0.1 -0.1,-0.1 -0.1,-0.1 -0.1,-0.1 -0.1,-0.3 -0.2,-0.3 0.1,0.2 0.2,0.4 0,0.3 -0.1,-0.3 0,-0.4 -0.1,-0.7 L 20.1,43 v -0.2 c -0.1,-0.3 -0.3,-0.9 -0.3,-1.1 -0.1,0.1 -0.2,-0.2 -0.2,-0.2 0,0 -0.1,-0.3 -0.1,-0.4 h 0.1 V 41 l 0.1,-0.1 c 0,-0.2 -0.1,-0.4 -0.1,-0.5 h -0.2 c -0.1,-0.3 0,-0.3 0.1,-0.1 0,-0.3 -0.1,-0.3 -0.2,-0.3 0,-0.1 -0.1,-0.3 0,-0.4 0,0.1 0.1,0.2 0.1,0.3 0,-0.2 -0.1,-0.5 -0.1,-0.7 v -0.4 c 0,-0.1 -0.1,-0.1 -0.1,-0.1 v -1.3 c 0,-0.1 -0.1,-0.2 -0.1,-0.4 v -1 c 0,-0.2 0.2,-0.4 0.1,-0.6 0,-0.2 -0.1,-0.3 -0.1,-0.5 0.1,-0.1 0.1,-0.4 0.1,-0.4 l 0.1,-0.1 c 0.1,-0.3 0,-0.5 0.1,-0.8 0,-0.1 0.1,-0.1 0.1,-0.3 -0.1,-0.1 -0.2,0.3 -0.1,0 0,-0.3 0.1,0.1 0.2,-0.2 0.1,-0.4 -0.1,-0.2 -0.1,-0.2 0,-0.2 0.1,-0.2 0.2,-0.3 0,-0.1 0,-0.3 0.1,-0.4 0,-0.1 0.1,-0.1 0.1,-0.2 0,-0.1 0,-0.3 0.1,-0.4 0,-0.2 0.1,-0.3 0.1,-0.5 0.1,-0.2 0.3,-0.8 0.3,-0.9 0.1,-0.3 0.1,-0.8 0.3,-1.1 0.1,-0.1 0,0 0.1,0 0.1,-0.3 -0.1,-0.1 0,-0.3 0.1,-0.4 0.5,-0.8 0.5,-1.1 0.1,0 0,0.1 0.1,0.1 0.2,-0.2 0.2,-0.5 0.4,-0.7 0.1,-0.2 0.3,-0.5 0.3,-0.6 l 0.2,-0.2 c 0.1,-0.1 0.1,-0.2 0.1,-0.3 0.1,-0.2 0.3,-0.4 0.4,-0.6 0.1,-0.1 0,-0.1 0.1,-0.3 0.1,-0.2 0.3,-0.4 0.5,-0.6 0.1,-0.1 0.2,-0.3 0.3,-0.4 0.1,-0.1 0.2,-0.2 0.3,-0.2 0.1,-0.1 0.1,-0.3 0.2,-0.3 0.1,0.1 0.6,-0.5 0.7,-0.6 0.1,-0.1 0.1,-0.2 0.2,-0.3 0,-0.1 0.2,-0.1 0.3,-0.2 0.3,-0.3 0.5,-0.6 0.7,-0.8 -0.1,0.1 -0.1,0.2 0.1,0.1 0.2,-0.2 0,-0.1 0,-0.2 l 0.4,-0.4 h 0.2 c 0.1,0 0.1,-0.1 0.1,-0.1 0.1,-0.1 0.4,-0.2 0.3,-0.3 0,0.1 0.2,0 0.3,-0.1 0.1,-0.2 0.4,-0.5 0.7,-0.7 0.1,0 0.3,-0.2 0.5,-0.3 0.1,-0.1 0.1,0 0.3,-0.1 0.1,-0.1 0.3,-0.3 0.4,-0.3 0.1,-0.1 0.3,-0.1 0.4,-0.2 0.2,-0.1 0.4,-0.3 0.6,-0.4 0.4,-0.2 0.7,-0.5 1,-0.7 0.4,-0.2 0.9,-0.5 1.3,-0.6 0.6,-0.3 1.2,-0.4 1.8,-0.7 0.2,-0.1 0.1,0.1 0.3,0 0.1,-0.2 0.5,-0.3 0.9,-0.4 0.3,-0.1 0.5,-0.1 0.7,-0.2 0.3,-0.1 0.8,-0.2 0.9,-0.3 h 0.2 c 0.2,-0.1 0.3,-0.2 0.5,-0.2 0.5,-0.1 1.1,-0.1 1.5,-0.2 h -0.7 c -0.2,0 -0.4,0.2 -0.5,0.1 0.3,0 0.4,-0.1 0.6,-0.2 h 0.3 c 0.2,0 0.3,-0.1 0.4,-0.1 H 40 c 0.1,0 0.2,-0.1 0.4,-0.1 0.1,0 0.4,0 0.4,-0.1 -0.4,0 -0.9,0 -1.2,0.1 -0.7,0.1 -1.5,0.2 -2.2,0.4 -0.3,0.1 -0.7,0.2 -0.8,0.2 -0.2,0 -0.4,0 -0.6,0.1 -0.4,0.1 -0.9,0.3 -1.4,0.5 -0.1,0 -0.2,0 -0.4,0.1 -0.1,0.1 -0.3,0.2 -0.4,0.2 -0.1,0 -0.3,0 -0.4,0.1 L 32.8,17 c -0.3,0.2 -0.6,0.2 -0.8,0.3 -0.1,0.1 -0.2,0.1 -0.3,0.2 -0.2,0.1 -0.3,0.1 -0.5,0.2 -0.1,0.1 -0.3,0.2 -0.5,0.3 l -0.6,0.3 c -0.4,0.3 -0.9,0.5 -1.3,0.8 -0.2,0.1 -0.3,0.3 -0.5,0.4 -0.3,0.2 -0.6,0.3 -0.8,0.5 -0.2,0.1 -0.3,0.2 -0.5,0.4 -0.2,0.2 -0.5,0.4 -0.8,0.6 -0.6,0.5 -1,0.9 -1.5,1.4 -0.2,0.2 -0.5,0.4 -0.7,0.6 l -0.2,0.2 c -0.1,0.2 -0.3,0.3 -0.5,0.5 -0.2,0.2 -0.3,0.3 -0.4,0.5 -0.1,0.1 -0.2,0.2 -0.3,0.4 -0.1,0.1 -0.1,0.2 -0.2,0.3 l -0.2,0.2 c 0,0 0,0.1 -0.1,0.2 -0.1,0.1 -0.2,0.3 -0.3,0.4 0,-0.1 -0.1,0.2 -0.1,0.2 l -0.2,0.2 c -0.1,0.1 -0.2,0.3 -0.3,0.5 -0.1,0.1 -0.2,0.2 -0.2,0.3 -0.2,0.3 -0.3,0.6 -0.4,0.9 -0.3,0.2 -0.4,0.6 -0.7,1.2 -0.1,0.2 -0.2,0.5 -0.3,0.7 -0.1,0.1 -0.1,0.2 -0.2,0.3 v 0.2 c -0.1,0.2 -0.1,0.1 -0.2,0.3 -0.2,0.5 -0.3,1.1 -0.5,1.7 -0.1,-0.2 -0.2,0 -0.3,0 -0.1,0.4 -0.2,0.8 -0.3,0.9 0.1,-0.7 0.4,-1.4 0.5,-2 0,-0.1 0,-0.3 0.1,-0.4 0,-0.1 0.1,-0.1 0.1,-0.3 v -0.2 l 0.1,-0.1 c 0.3,-0.6 0.1,-0.7 0.2,-1.1 0.1,0 0,0.4 0.1,0.1 -0.2,-0.1 0.1,-0.2 0.1,-0.1 0.1,-0.1 0.1,-0.3 0.2,-0.5 0.2,-0.5 0.5,-1.1 0.7,-1.5 0.2,-0.4 0.4,-0.9 0.7,-1.2 0,0.2 -0.5,0.7 -0.3,0.8 0.1,-0.2 0.2,-0.4 0.3,-0.5 0.1,-0.1 0,-0.2 0.1,-0.3 0.1,-0.2 0.4,-0.4 0.4,-0.6 -0.1,0.1 -0.2,0.3 -0.3,0.2 0.1,-0.3 0.3,-0.5 0.5,-0.8 0.1,-0.1 0.1,-0.2 0.2,-0.3 0.1,-0.2 0.4,-0.4 0.5,-0.7 0.1,-0.1 0,-0.1 0.1,-0.1 l 0.3,-0.3 c 0.1,-0.1 0.5,-0.6 0.6,-0.7 h 0.1 l 0.2,-0.2 c -0.1,0.1 -0.1,0.1 -0.2,0.1 0.2,-0.4 0.7,-0.8 1,-1.1 0.1,-0.1 0.2,-0.2 0.2,-0.3 0.1,-0.1 0.1,-0.1 0.2,-0.1 0.6,-0.6 1.3,-1.2 2,-1.7 L 27,19 c 0,0 0.1,-0.1 0.2,-0.1 0,0 0.3,-0.3 0.3,-0.2 0.3,-0.2 0,-0.2 0.3,-0.4 0.2,0 0.6,-0.3 0.9,-0.5 0.1,-0.1 0.2,0 0.3,-0.1 0,-0.2 0.4,-0.3 0.6,-0.4 0.1,-0.1 0.2,-0.2 0.4,-0.3 0.1,0 0.2,-0.1 0.4,-0.1 0.1,0 0.3,-0.1 0.4,-0.2 0.2,-0.1 0.3,-0.2 0.5,-0.3 0.2,-0.1 0.3,-0.1 0.4,-0.1 0.2,-0.1 -0.2,0 0,-0.1 0.2,-0.1 0.4,-0.2 0.7,-0.3 0.2,0 0.2,0 0.4,-0.1 0.1,0 0.2,-0.1 0.4,-0.2 0.4,-0.2 1,-0.4 1.3,-0.5 0.2,-0.1 0.4,0 0.5,-0.1 0.1,0 0.3,-0.1 0.4,-0.2 0.1,0 0.2,0 0.4,-0.1 0.1,0 0.2,-0.1 0.4,-0.1 0.1,0 0.3,0 0.4,-0.1 0,0 0.1,-0.1 0.2,-0.1 h 0.3 c 0.2,0 0.2,-0.1 0.4,-0.1 h 0.4 c 0.1,0 0.2,-0.1 0.3,-0.1 h 0.4 c 0.7,-0.1 1.8,-0.3 2.6,-0.3 h 0.4 c 0.2,0 0.1,-0.1 0.3,-0.1 h 0.6 c 0.1,0 0.2,0.1 0.3,0.1 0.1,0 0.2,-0.1 0.3,-0.1 0.1,0 0.5,0.1 0.6,0.1 1.3,0 3.9,0.5 5.1,0.7 0.1,0 0.3,0 0.5,0.1 l 0.1,0.1 c 0.2,0.1 0.4,0.1 0.5,0.2 0.2,0.1 0.5,0.2 0.7,0.2 0.2,0.1 0.5,0.2 0.7,0.3 0.1,0 0.2,0 0.3,0.1 0.1,0 0.1,0.1 0.2,0.1 0.7,0.2 1.6,0.7 2.5,1.1 l 0.6,0.3 c 0.2,0.1 0.4,0.1 0.6,0.2 0.4,0.2 0.6,0.4 0.8,0.4 v -0.1 l 0.1,0.1 v -0.1 c 0.1,0 0.4,0.1 0.4,0 0,-0.1 -0.2,-0.3 -0.4,-0.4 -0.1,-0.1 -0.3,-0.1 -0.4,-0.2 -0.1,-0.1 -0.1,-0.1 -0.3,-0.2 -0.1,0 -0.1,0 -0.2,-0.1 -0.1,-0.1 -0.1,-0.1 -0.3,-0.2 L 54.6,16.2 C 54.3,16 53.9,15.9 53.6,15.7 53.3,15.6 53.1,15.5 52.8,15.4 L 52.2,15.1 C 51.1,14.7 49.5,14 48.5,13.9 h -0.3 c -0.4,-0.1 -0.9,-0.3 -1.3,-0.3 h -0.4 c -0.1,0 -0.3,-0.1 -0.4,-0.1 -0.3,0 -0.6,-0.1 -0.9,-0.1 -0.5,-0.1 -1,0 -1.5,0 -0.1,0 -0.3,0 -0.4,-0.1 h -1.2 c -0.1,0 -0.2,-0.1 -0.4,-0.1 -0.3,0 -0.6,0.1 -0.6,0.1 -0.4,0 -0.5,-0.1 -0.7,0.1 -0.3,0 -0.5,-0.1 -0.7,-0.1 0,0 -0.3,0.1 -0.4,0.1 H 39 c 0.5,-0.1 1.4,-0.2 1.7,-0.2 0.5,0 1,0 1.4,-0.1 0.1,0 0.2,-0.1 0.3,-0.1 h 0.8 c 0.2,0 0.5,-0.1 0.7,-0.1 h 1.3 c 0.4,0 0.5,-0.1 0.8,-0.1 0,-0.1 -0.2,-0.1 -0.2,-0.2 0,0 0.4,0 0.3,-0.1 -0.4,-0.2 -0.7,-0.1 -1.1,-0.2 -0.3,0 -0.7,-0.1 -0.9,-0.1 h -2.2 c -0.2,0 -0.3,0.1 -0.5,0.1 -0.5,0 -1,0 -1.5,0.1 -0.2,0 -0.3,0.1 -0.5,0.1 -0.3,0 -0.7,0.1 -1.1,0.1 -0.2,0 -0.4,0.1 -0.6,0.1 -0.6,0.1 -1.3,0.2 -1.8,0.4 -0.6,0.1 -1.5,0.5 -1.9,0.6 -0.1,0.1 -0.2,0.1 -0.3,0.1 0,0 -0.2,0.1 -0.3,0.2 -0.1,0 -0.1,0 -0.2,0.1 -0.1,0 -0.2,0.1 -0.3,0.2 0,0 -0.1,0 -0.2,0.1 -0.6,0.2 -1.3,0.5 -1.9,0.8 -0.1,0.1 -0.2,0.2 -0.3,0.2 -0.2,0.1 -0.4,0.1 -0.6,0.2 -0.2,0.1 -0.3,0.2 -0.6,0.3 -0.1,0.1 -0.1,0 -0.3,0.1 -0.2,0.1 -0.3,0.2 -0.5,0.3 -0.1,0.1 -0.1,0.1 -0.3,0.2 -0.2,0.1 -0.3,0.2 -0.5,0.3 l -0.3,0.3 c -0.1,0 -0.1,0.1 -0.2,0.1 -0.7,0.4 -1.7,1.3 -2.3,1.8 -0.1,0.1 -0.1,0 -0.2,0.1 v 0.1 c -0.2,0.2 -0.5,0.3 -0.7,0.5 -0.1,0.1 -0.2,0.3 -0.4,0.4 -0.2,0.2 -0.5,0.4 -0.8,0.7 -0.3,0.3 -0.6,0.7 -0.8,1 l -0.3,0.3 -0.9,1.2 -0.2,0.2 c -0.1,0.1 -0.1,0.1 -0.2,0.3 -0.1,0.1 -0.2,0.1 -0.2,0.2 -0.1,0.1 -0.1,0.2 -0.1,0.2 l -0.2,0.2 c -0.3,0.4 -0.6,1 -0.9,1.4 -0.1,0.1 -0.2,0.2 -0.2,0.3 l -0.1,0.2 c 0,0.1 -0.2,0.3 -0.2,0.4 0,0.1 0,0.3 -0.1,0.4 -0.4,0.3 -0.6,1.1 -0.9,1.8 -0.1,0.3 -0.3,0.5 -0.4,0.8 0,0.1 -0.1,0.3 -0.1,0.4 0,0.1 -0.1,0.2 -0.1,0.3 -0.1,0.2 -0.1,0.4 -0.1,0.6 -0.1,0.4 -0.2,0.7 -0.3,1.1 0.6,-0.3 0.5,-0.1 0.5,0.2 0,0.2 -0.1,0.2 -0.1,0.4 v 0.4 c 0,0.5 -0.2,1.3 -0.2,1.6 0,0.1 0.1,0.1 0,0.2 0,0 -0.1,0.2 -0.1,0.3 -0.1,0.4 0,0.8 0,1.1 v 1.2 c 0,0.1 -0.1,0 -0.1,0.1 v 0.3 h -0.1 c -0.1,0.2 -0.1,0.4 -0.1,0.6 v 1.1 c 0,0.1 0.1,0.3 0.1,0.4 v 0.3 c 0,0.4 0.1,0.4 0.1,0.6 v 0.3 c 0,0.1 -0.1,0 -0.2,0.1 0,0.1 -0.1,0.5 0,0.6 0,0.1 0.1,0.1 0.1,0.4 0,0.1 0,0.2 0.1,0.3 0.1,0.2 0.2,0.4 0.2,0.6 0.2,0.5 0.5,1.3 0.7,1.8 0,0.1 0,0.2 0.1,0.3 0,0.1 0.1,0.3 0.2,0.5 0.1,0.2 0.1,0.3 0.1,0.4 0.1,0.2 0.2,0.3 0.2,0.5 0.1,0.2 0.1,0.3 0.2,0.5 0.2,0.3 0.3,0.6 0.5,0.9 0.2,0.3 0.3,0.6 0.4,0.9 0.1,0.2 0.2,0.3 0.3,0.4 0.1,0.2 0.1,0.3 0.2,0.4 0.2,0.3 0.5,0.6 0.7,0.9 0.1,0.1 0.1,0.3 0.2,0.4 0.2,0.2 0.5,0.6 0.5,0.6 l 0.1,0.1 c 0.1,0.1 0.2,0.2 0.3,0.4 l 0.7,0.7 0.3,0.3 c 0.2,0.2 0.5,0.3 0.5,0.5 -0.3,0 -0.7,-0.6 -1.1,-0.9 L 21.2,52.2 20.9,51.9 C 20.6,51.6 20.2,51.3 20,51 19.9,50.9 19.8,50.7 19.7,50.5 19.3,50 18.9,49.6 18.6,49.1 18.4,48.8 18.3,48.5 18.1,48.2 18.1,48.1 17.9,48 17.9,47.9 17.7,47.7 17.5,47.2 17.4,47 c 0,-0.1 -0.1,-0.3 -0.1,-0.3 0,-0.1 -0.1,-0.1 -0.2,-0.2 V 46.4 C 17,46.1 16.8,45.9 16.8,45.8 16.4,45 16.1,44 15.8,43.1 c -0.1,-0.4 -0.3,-0.8 -0.4,-1.2 0,-0.2 0,-0.3 -0.1,-0.4 -0.1,-0.3 -0.2,-0.5 -0.2,-0.9 0,-0.1 0,-0.3 -0.1,-0.4 -0.1,-0.3 -0.1,-0.6 -0.2,-1 v -0.4 c 0,0 -0.1,-0.2 -0.1,-0.4 V 38 c 0,-0.3 -0.1,-0.6 -0.1,-0.9 v -0.6 c 0,-0.6 0,-1.2 0.1,-1.7 v -0.4 c 0,-0.4 0.2,-0.9 0.2,-1.2 v -0.4 c 0,-0.1 0.1,-0.3 0.1,-0.4 0,-0.2 0,-0.4 0.1,-0.5 0,-0.2 0.1,-0.4 0.2,-0.6 0.2,-0.9 0.4,-1.6 0.7,-2.4 0.1,-0.2 0.2,-0.5 0.3,-0.7 0.1,-0.1 0.1,-0.3 0.2,-0.4 0,-0.1 0.1,-0.2 0.1,-0.3 0.1,-0.1 0.2,-0.3 0.2,-0.4 0.3,-0.6 0.7,-1.2 0.9,-1.7 0.4,-0.6 0.5,-0.9 0.7,-1.4 -0.2,-0.1 -0.4,0.1 -0.5,-0.2 0.2,-0.3 0.4,-0.5 0.5,-0.7 0.1,0 0.1,0 0.1,0.1 0.3,-0.3 0.7,-0.6 1,-1.1 0.1,-0.1 0.1,-0.2 0.1,-0.2 0.1,-0.1 0.1,-0.2 0.2,-0.3 0.1,-0.2 0,-0.2 0,-0.2 0.1,-0.3 0.3,-0.6 0.6,-0.9 0.1,-0.1 0.4,-0.4 0.4,-0.5 v -0.4 c 0,-0.2 -0.1,-0.1 -0.2,-0.2 v -0.1 c -0.1,0 -0.2,0 -0.2,-0.1 -0.3,0.2 -0.5,0.3 -0.8,0.6 -0.1,0.1 -0.2,0.3 -0.4,0.6 -0.2,0.3 -0.3,0.3 -0.4,0.6 0.2,-0.1 0.2,0 0.1,0.1 -0.2,0.2 -0.3,0.4 -0.4,0.6 -0.1,0.2 -0.1,0.4 -0.3,0.6 l -0.3,0.3 c -0.2,0.3 -0.3,0.5 -0.4,0.7 -0.3,0.4 -0.5,0.9 -0.7,1.2 -0.1,0.2 -0.2,0.3 -0.3,0.5 -0.1,0.2 -0.1,0.4 -0.2,0.5 -0.1,0.3 -0.3,0.4 -0.3,0.5 -0.1,0.2 -0.1,0.3 -0.2,0.5 -0.2,0.4 -0.4,0.8 -0.4,1.1 0,0.1 -0.1,0.3 -0.1,0.5 0,0 -0.2,0.4 -0.2,0.6 v 0.4 c 0,0.1 -0.1,0.3 -0.2,0.4 -0.1,0.3 0,0.5 -0.1,0.7 -0.1,0.2 -0.2,0.2 -0.2,0.5 0,0.3 0.1,0 0.1,0.2 0,0.2 -0.1,0.2 -0.2,0.4 v 0.3 c 0,0.1 -0.1,0.1 -0.1,0.3 v 0.4 c 0,0.2 -0.1,0.3 -0.1,0.4 -0.1,0.6 0,0.9 -0.1,1.3 0,0.3 -0.1,0.4 -0.1,0.5 v 0.6 c 0,0.2 -0.1,0.4 -0.1,0.6 v 0.9 c 0,0.2 0.1,0.4 0.1,0.5 v 0.3 c 0,0.6 0.1,1.3 0.2,2 0,0.3 0,0.6 0.1,0.9 0,0.2 0.1,0.3 0.2,0.5 0.1,0.6 0.2,1.3 0.5,2.1 0.1,0.2 0.1,0.3 0.2,0.4 0,0.1 0,0.2 0.1,0.4 0,0.1 0.1,0.3 0.2,0.4 l 0.3,0.9 c 0.2,0.5 0.3,0.9 0.5,1.3 0.1,0 0.1,0 0.3,0.4 0,0.2 0.1,0.2 -0.1,0.1 0.3,0.8 0.5,0.7 0.9,1.3 0,0.1 0,0.4 0.3,0.7 -0.1,-0.1 -0.1,-0.3 -0.1,-0.3 0.4,0.4 0.4,0.8 0.5,1.1 0.3,0.3 0.6,0.9 0.9,1.2 0.1,0.1 0.2,0.1 0.3,0.3 0.3,0.4 0.6,0.8 1,1.2 0.2,0.3 0.4,0.4 0.6,0.6 0.1,0.1 0.2,0.1 0.3,0.2 l 0.2,0.2 c 0.2,0.2 0.4,0.2 0.5,0.4 l 0.3,0.3 c 0.2,0.2 0.4,0.3 0.6,0.5 0.3,0.3 0.7,0.6 0.8,0.7 0.1,0.1 0.2,0.1 0.3,0.2 0.2,0.1 0.3,0.3 0.5,0.4 0.1,0.1 0.3,0.2 0.4,0.2 0.2,0.2 0.4,0.3 0.7,0.5 0.3,0.2 0.5,0.3 0.8,0.5 0.2,0.1 0.3,0.1 0.4,0.2 0.7,0.3 1.5,0.8 2.1,1 0.1,0 0.2,0 0.4,0.1 0.2,0.1 0.4,0.2 0.5,0.2 0.5,0.1 0.9,0.2 1.4,0.3 0.2,0 0.3,0.1 0.4,0.1 0.1,0 0.3,0 0.5,0.1 0.3,0.1 0.5,0.2 0.8,0.2 0.4,0.1 1,0.1 1.6,0.1 0.2,0 0.5,0.1 0.6,0.1 0.2,0 0.1,-0.1 0.4,-0.1 0.1,0 0.3,0.1 0.5,0.1 0.9,0.1 1.5,0 2.4,-0.1 0.5,-0.1 0.9,-0.1 1.4,-0.2 0.9,-0.1 2,-0.4 2.4,-0.6 0.1,-0.1 0.2,-0.2 0.3,-0.2 0,0.1 0.1,0 0.3,0 0,0 0.5,-0.2 0.4,-0.1 0.3,-0.1 0.3,-0.2 0.6,-0.3 0.2,-0.1 0.4,-0.1 0.6,-0.2 0.1,0 0.4,-0.2 0.6,-0.3 0.1,-0.1 0.1,-0.1 0.3,-0.2 0.1,-0.1 0.2,0 0.4,-0.1 0.2,-0.1 0.4,-0.3 0.6,-0.4 0.9,-0.6 2.2,-1.4 3,-2.2 0.1,-0.1 0.2,-0.3 0.4,-0.4 l 0.2,-0.2 c 0.6,-0.5 0.8,-0.9 1.2,-1.3 0.1,-0.1 0.2,-0.1 0.3,-0.2 0.2,-0.2 0.5,-0.6 0.5,-0.7 l 0.2,-0.2 0.3,-0.6 c 0.1,-0.2 0.4,-0.5 0.5,-0.7 0.2,-0.4 0.3,-0.7 0.5,-1 0.1,0 -0.1,0.3 -0.1,0.3 0.2,-0.4 0.4,-0.6 0.6,-1 0,-0.1 -0.1,-0.1 0,-0.2 0.2,-0.5 0.4,-0.8 0.6,-1.3 0.1,-0.3 0.2,-0.9 0.3,-1.2 l 0.3,-0.6 v -0.5 c 0.1,-0.3 0.2,-1.5 0.2,-1.5 0,-0.2 0.1,-0.2 0.2,-0.5 0,0 -0.1,0 -0.1,-0.1 0.2,-0.6 0.1,-1.8 0.1,-2.6 -0.1,-0.3 -0.1,0.2 -0.2,-0.4 0,-0.2 0.1,0.1 0.1,-0.1 -0.1,-0.3 0,-0.6 -0.1,-0.9 z"
     stroke-width=".25"
     stroke="#FFF"
     fill="#FFF"
     clip-rule="evenodd"
     fill-rule="evenodd" />
  <path
     inkscape:connector-curvature="0"
     id="path82"
     d="m 54.8,39.1 c -0.1,0 -0.1,-0.1 -0.1,-0.1 0,0.2 0.1,0.2 0.2,0.4 v 0.7 c -0.1,0 -0.1,-0.5 -0.2,-0.6 -0.1,-0.3 -0.1,-0.9 -0.2,-1.3 0,-0.1 -0.1,-0.4 -0.2,-0.3 -0.1,-0.3 0,-0.3 0,-0.5 0,-0.3 -0.1,-0.2 -0.2,-0.4 C 54,36.7 54,36.4 53.9,36.2 53.7,35.7 53.5,35.4 53.3,35 53.1,34.6 53,34.3 52.8,33.9 52.7,33.7 52.6,33.6 52.5,33.4 52.4,33.2 52.4,33.2 52.3,33.1 L 52.1,32.9 C 52,32.7 52,32.7 51.9,32.6 51.8,32.4 51.6,32.3 51.5,32.2 51.4,32 51.2,31.9 51.1,31.7 51,31.6 50.9,31.5 50.8,31.5 50.7,31.4 50.6,31.2 50.4,31.1 50.3,31 50.2,31 50.1,30.9 50,30.7 50,30.7 49.9,30.6 c -0.2,-0.1 -0.5,-0.4 -0.6,-0.4 0,0 -0.2,-0.2 -0.4,-0.3 0.2,0 0,-0.2 -0.2,-0.4 -0.1,-0.1 -0.1,-0.2 -0.2,-0.2 -0.3,-0.3 -0.9,-0.5 -1,-0.8 0.1,-0.1 0.4,0.2 0.6,0.3 0.2,0.2 0.6,0.4 0.8,0.6 0.2,0.2 0.2,0.3 0.6,0.6 0.1,0.1 0.2,0.1 0.3,0.2 0.2,0.1 0.3,0.3 0.6,0.6 0.4,0.4 0.8,0.9 1.1,1.2 0.1,0.1 0.1,0.3 0.2,0.4 0.2,0.2 0.4,0.3 0.5,0.5 0,0 0,0.2 0.2,0.3 0.1,0.2 0.2,0.3 0.4,0.5 0.1,0.2 0.1,0.2 0.2,0.3 0.3,0.6 0.8,1.6 1.2,2.6 0.1,0.2 0.1,0.3 0.2,0.4 0.2,0.4 0.2,0.9 0.3,1.3 0,0.2 0.1,0.5 0.1,0.8 z M 38.1,58.5 c -0.3,0 -0.5,0.1 -0.7,0.1 h -0.9 c -0.2,0 -0.3,-0.1 -0.4,-0.1 -0.2,0 -0.5,0.1 -0.7,0.1 -0.1,0 -0.3,-0.1 -0.4,-0.1 -0.1,0 -0.1,0.1 -0.3,0 -0.1,0 -0.2,-0.1 -0.3,-0.1 h -0.8 c -0.2,0 -0.2,-0.1 -0.3,-0.1 -0.2,-0.1 -0.2,0 -0.4,0 -0.1,0 -0.1,-0.1 -0.3,-0.1 -0.3,-0.1 -0.4,0 -0.6,-0.1 -0.1,0 -0.8,-0.2 -1.1,-0.3 l -0.2,-0.1 c -0.2,-0.1 -0.3,-0.1 -0.6,-0.2 -0.3,-0.2 -0.7,-0.3 -1.2,-0.6 h -0.2 c -0.1,-0.1 -0.1,-0.1 -0.3,0 -0.2,0 -0.1,-0.1 -0.3,-0.2 C 28,56.6 27.8,56.6 27.7,56.5 27.6,56.4 27.5,56.3 27.3,56.2 27,56 26.6,55.8 26.4,55.7 26.2,55.6 26.1,55.4 25.9,55.3 25.7,55.2 25.5,55.1 25.3,54.9 l -0.2,-0.2 c -0.1,-0.1 -0.2,-0.1 -0.3,-0.2 -0.1,0 -0.1,-0.1 -0.2,-0.2 -0.4,-0.3 -0.8,-0.6 -1.3,-1 L 22.7,52.7 C 22.5,52.5 22.3,52.4 22.1,52.1 22,52 22,51.9 21.9,51.8 21.8,51.7 21.7,51.7 21.6,51.6 21.5,51.5 21.1,51 20.9,50.7 c 0.2,0.1 0.4,0.3 0.6,0.6 0.1,0.1 0.1,0.2 0.2,0.3 0.2,0.2 0.3,0.4 0.5,0.6 0.2,0.2 0.4,0.2 0.6,0.4 0.1,0.1 0.2,0.2 0.2,0.3 0.5,0.6 1.7,1.4 2.5,1.9 0.3,0.2 0.4,0.3 0.7,0.5 0.1,0.1 0.1,0.1 0.3,0.1 0.2,0.1 0.5,0.2 0.9,0.5 0.2,0.1 0.2,0.2 0.4,0.3 0.2,0.1 0.3,0.1 0.5,0.2 0.2,0.1 0.4,0.2 0.7,0.3 0.3,0.1 0.7,0.2 1,0.3 0.4,0.1 0.6,0.1 1.1,0.3 0.2,0 0.1,-0.1 0.3,-0.1 0.4,0 0.4,0.2 0.6,0.2 0.2,0 0.6,0.2 0.9,0.2 h 0.4 c 0.1,0 0.4,0.1 0.5,0.1 h 0.8 c 0.8,0 1.5,0.1 1.8,0 0.1,0 0.2,-0.1 0.3,-0.1 0.4,0 0.7,0.1 1.3,0 0.1,0 0.2,-0.1 0.3,-0.1 h 0.4 c 0.2,0 0.8,-0.2 1.3,-0.3 h 0.4 c 0.1,0 0.3,-0.1 0.4,-0.2 0.2,-0.1 0.5,-0.1 0.7,-0.2 0.4,-0.1 1,-0.4 1.6,-0.6 0.4,-0.2 1.1,-0.5 1.8,-0.8 0.2,0 0,0 0.1,0.1 0.2,-0.1 0.2,-0.2 0.4,-0.2 0.1,-0.1 0,-0.2 0.3,-0.3 0.1,0 -0.1,0.1 -0.1,0.2 0.2,0 0.6,-0.3 0.8,-0.5 0.2,-0.1 0,-0.1 -0.1,0 0.1,-0.1 0.5,-0.3 0.7,-0.5 h 0.2 c 0.1,-0.1 0.1,-0.1 0.1,-0.2 0.1,-0.1 0.2,-0.1 0.3,-0.2 0.1,-0.1 0.3,-0.2 0.4,-0.3 l 0.3,-0.3 0.6,-0.6 c 0.1,0 0.1,0 0.1,-0.1 0.2,-0.2 0.2,-0.3 0.4,-0.5 l 0.9,-0.9 c 0.2,-0.2 0.4,-0.5 0.5,-0.7 0.2,-0.2 0.1,-0.2 0.3,-0.5 0,-0.1 0.1,-0.1 0.2,-0.3 0.1,-0.1 0.1,-0.2 0.1,-0.2 0.2,-0.4 0.5,-0.7 0.7,-1.1 0.1,-0.1 0.1,-0.3 0.2,-0.4 0.2,-0.4 0.6,-1.3 0.7,-1.8 0.2,-0.5 0.3,-1.3 0.4,-1.7 0.1,-0.3 0.1,-0.1 0.1,-0.2 0.1,-0.3 0,-0.5 0.1,-0.8 0,-0.1 0.1,-0.3 0.1,-0.4 v -0.8 c 0,-0.2 0.1,-0.1 0.1,-0.3 v -0.5 c 0,0 0,-0.5 0.1,-0.4 0,0.2 0.1,0.4 0,0.7 v 0.4 c 0,0.2 0.1,0.4 0.1,0.6 0,0.1 -0.1,0.2 -0.1,0.3 v 0.6 c 0,0.3 -0.1,0.7 -0.2,1.1 0,0.3 0,0.6 -0.1,0.9 0,0.1 -0.1,0.3 -0.1,0.4 -0.2,0.8 -0.5,1.7 -0.8,2.4 -0.1,0.1 -0.2,0.3 -0.2,0.4 -0.1,0.2 -0.1,0.3 -0.2,0.4 -0.1,0.1 -0.2,0.2 -0.3,0.4 -0.1,0.1 -0.2,0.3 -0.3,0.5 -0.1,0.2 -0.3,0.3 -0.4,0.5 -0.2,0.3 0.1,0 0,0.2 -0.3,0.4 -0.6,0.9 -0.9,1.2 l -0.3,0.3 c -0.1,0.1 -0.2,0.3 -0.4,0.5 -0.1,0 -0.3,0.2 -0.3,0.2 -0.1,0.1 -0.2,0.3 -0.3,0.4 -0.2,0.3 -0.5,0.5 -0.8,0.7 l -0.4,0.4 c -0.2,0.2 -0.4,0.3 -0.6,0.4 -0.1,0.1 -0.1,0.2 -0.2,0.3 -0.4,0.3 -0.8,0.5 -1.3,0.8 -0.1,0.1 -0.2,0.2 -0.4,0.3 -0.1,0.1 -0.3,0.1 -0.4,0.2 -0.2,0.1 -0.3,0.2 -0.4,0.3 -0.2,0.1 -0.4,0.2 -0.7,0.3 0.1,-0.2 0,-0.1 -0.1,-0.1 -0.2,0.1 -0.2,0 -0.3,0.1 -0.1,0 -0.2,0.2 -0.3,0.2 h -0.3 c -0.4,0.2 -0.9,0.3 -1.1,0.5 -0.3,0 -0.5,0.1 -1,0.3 -0.2,0.1 -0.3,0.1 -0.4,0.2 -0.2,0 -0.3,0 -0.5,0.1 -0.3,0.1 -0.5,0.1 -0.7,0.1 -0.3,0 0,-0.1 -0.3,0 -0.1,0 -0.5,0.1 -0.8,0 -0.3,0.1 0,0 0,0 z M 29.6,43.8 c 0.1,0 0.2,0.1 0.3,0.3 0.1,0.2 0.1,0.2 0.2,0.3 0.2,0.3 0.6,0.6 0.8,0.9 -0.1,0.1 -0.3,-0.2 -0.6,-0.5 -0.2,-0.5 -0.6,-0.8 -0.7,-1 z M 45,27.3 c -0.1,0.1 -0.8,-0.1 -1.1,-0.2 -0.5,-0.1 -1.1,-0.3 -1.5,-0.3 -0.2,0 -0.4,0 -0.6,-0.1 -0.2,0 -0.3,-0.1 -0.4,-0.1 -0.2,0 -0.4,0.1 -0.6,0.1 h -2.2 c -0.3,0 0,0.1 -0.3,0.1 -0.3,0.1 -0.3,0 -0.5,0.1 0.2,-0.2 0.9,-0.3 1.4,-0.4 0.4,0 0.9,-0.1 1.4,-0.1 H 41 c 0.2,0 0.4,-0.1 0.6,-0.1 0.2,0 0.3,0.1 0.4,0.1 h 0.3 c 0.3,0 0.6,0.1 0.8,0.2 h 0.2 c 0.1,0 0.1,0.1 0.1,0.1 0.5,0.2 1.2,0.4 1.6,0.6 z M 31.4,45.7 c 0.4,0.3 0.9,0.7 1.2,1 -0.3,-0.2 -1.2,-0.8 -1.2,-1 z m 3.6,-18 c 0.2,0 -0.2,0.2 -0.5,0.3 -0.2,0.1 -0.5,0.3 -0.7,0.4 -0.2,0.2 -0.5,0.4 -0.7,0.6 -0.3,0.2 -1.3,1.1 -1.5,1.2 -0.1,0 -0.3,0.2 -0.3,0.2 -0.2,0.2 -0.1,0.3 -0.2,0.4 l -0.3,0.3 c -0.3,0.4 -0.6,0.8 -0.8,1.2 -0.2,0.4 -0.4,0.9 -0.6,0.9 0.3,-0.5 0.5,-1 0.9,-1.5 0.1,-0.2 0.3,-0.3 0.4,-0.5 0.1,-0.1 0.2,-0.3 0.3,-0.5 0.1,-0.1 0.2,-0.2 0.3,-0.2 0,-0.1 0.1,-0.2 0.2,-0.3 0.3,-0.4 0.9,-0.8 1.4,-1.2 0.2,-0.2 0.4,-0.3 0.6,-0.5 0.4,-0.2 0.7,-0.5 1,-0.6 0.1,-0.1 0.3,-0.1 0.4,-0.2 -0.1,0.1 -0.1,0 0.1,0 z"
     fill="red"
     clip-rule="evenodd"
     fill-rule="evenodd" />
  <path
     inkscape:connector-curvature="0"
     id="path84"
     d="m 32.8,46.7 c 0.5,0.3 1.2,0.6 1.9,0.9 0.2,0.1 1,0.3 1,0.4 -0.1,0 -0.3,-0.1 -0.5,-0.1 C 34.9,47.8 34.4,47.7 34.1,47.5 34,47.4 33.8,47.3 33.7,47.3 33.4,47.1 32.8,47 32.8,46.7 Z m 3.1,1.3 c 0,-0.1 0.5,0 0.8,0.1 0.3,0.1 0.8,0 1.1,0 h 0.3 c 0.5,0 1,-0.2 1.5,-0.3 -0.2,0.2 -0.7,0.2 -1,0.2 h -0.7 c -0.1,0 -0.1,0.1 -0.2,0.1 H 36.8 C 36.5,48.1 36.2,48 35.9,48 Z M 29,34.2 c 0,0.2 -0.2,0.6 -0.3,1 -0.1,0 0.2,-0.9 0.3,-1 z m 0.3,-0.6 c -0.1,0.2 -0.1,0.4 -0.2,0.5 -0.2,0 0.1,-0.6 0.2,-0.5 z m -0.8,2.3 c 0.1,0.1 0,0.4 -0.1,0.8 -0.1,0 0,-0.5 0.1,-0.8 z m 0.2,-0.6 c 0,0.1 0,0.3 -0.1,0.5 -0.1,-0.1 0,-0.4 0.1,-0.5 z m 11.6,12.3 c 0.3,-0.2 0.9,-0.4 1.4,-0.7 0.3,-0.2 0.5,-0.4 0.7,-0.5 0.1,0 0,0.1 0,0.1 -0.6,0.6 -1.5,0.9 -2.1,1.1 z m 4.7,-4 c -0.1,0 0.1,-0.4 0.2,-0.6 0.1,0 0,0.3 -0.2,0.6 z M 29.3,38.1 c 0,-0.4 0,-1 0.1,-1.2 0.1,-0.1 0,0.7 0,0.9 0,0.1 0,0.3 -0.1,0.3 z m 0.5,2.7 c 0.1,-0.1 0.3,0.6 0.2,0.6 -0.1,-0.2 -0.2,-0.5 -0.2,-0.6 z M 29.4,39 c 0.1,0 0.1,0.4 0.2,0.7 0.1,0.4 0.2,0.4 0.2,0.7 v 0.2 C 29.5,40.1 29.5,39.5 29.4,39 Z m 3,5.8 c 0,-0.1 0.3,-0.1 0.4,-0.2 0.2,0.2 0.4,0.3 0.7,0.5 0.1,0.1 0.2,0.2 0.4,0.3 0.1,0.1 0.3,0.1 0.4,0.2 0.1,0.1 0.3,0.2 0.4,0.3 0.1,0.1 0.1,0.1 0.3,0.1 0.2,0.1 0.6,0.2 0.9,0.3 0.2,0 0.4,0.1 0.5,0.1 0.2,0.1 0.4,0.1 0.6,0.2 0.2,0 0.3,-0.1 0.6,-0.1 l 0.2,0.1 c 0.1,0 0.3,0 0.5,-0.1 0.2,0 0.4,0 0.5,-0.1 0.5,-0.1 0.8,-0.3 1.2,-0.2 0.8,-0.4 1.6,-0.8 2.3,-1.1 -0.1,0.1 -0.2,0.3 -0.3,0.4 -0.1,0.1 -0.4,0.2 -0.5,0.3 -0.3,0.2 -0.5,0.3 -0.8,0.5 -0.2,0.1 -0.4,0.1 -0.6,0.2 -0.6,0.2 -1.7,0.4 -2.5,0.4 -0.4,0 -1.2,0 -1.8,-0.2 C 35.6,46.6 35.4,46.5 35.2,46.5 34.9,46.4 34.7,46.4 34.4,46.2 34.2,46.1 34.1,46 34,45.9 33.3,45.5 32.8,45.2 32.4,44.8 Z m 14,-13.1 C 46.3,31.8 46.1,31.6 46,31.4 45.8,31.3 45.5,31.1 45.5,31 c 0.4,0.2 0.6,0.4 0.9,0.7 z m 1,0.9 C 47.3,32.7 47.2,32.4 47.1,32.3 47,32.2 46.7,32.1 46.6,32 c 0.3,0 0.6,0.4 0.8,0.6 z m 3.2,6.2 c -0.1,-0.2 0,0.1 -0.1,0 0.1,-0.3 -0.1,-1.1 -0.4,-1.8 -0.1,-0.3 -0.2,-0.7 -0.3,-0.9 0,-0.1 -0.2,-0.2 -0.2,-0.2 -0.1,-0.1 0,-0.2 -0.1,-0.4 0,0 -0.1,-0.2 -0.2,-0.3 -0.1,-0.2 -0.4,-0.8 -0.7,-1 -0.1,-0.1 -0.3,-0.2 -0.4,-0.5 v -0.1 l -0.3,-0.3 c -0.1,-0.1 -0.1,-0.2 -0.2,-0.3 0,-0.1 -0.2,-0.3 -0.1,-0.3 0.2,0.1 0.3,0.3 0.4,0.4 l 0.2,0.2 v 0.1 c 0.1,0.1 0.1,0.1 0.2,0.1 0.1,0.1 0.3,0.5 0.4,0.6 l 0.3,0.3 c 0,0 0.2,0.3 0.2,0.2 v 0.2 c 0.1,0.2 0.3,0.3 0.4,0.5 0.1,0.1 0,0.2 0.1,0.4 0,0 0.1,0.2 0.2,0.2 0.1,0.1 0,0.1 0.1,0.2 0,0.1 0.1,0.1 0.1,0.1 0.1,0.2 0.4,1 0.5,1.3 0,0.1 0.1,0.1 0.1,0.2 V 38 c 0,0.1 0.1,0.1 0.1,0.2 0,0 -0.1,0 0,0.1 0,0.1 0,0.1 0.1,0.2 0.1,0.2 0,0.2 0.1,0.5 0,0.2 0.1,0.3 0.1,0.6 v 1.5 c 0,0.1 -0.1,0.3 -0.1,0.4 0,0.4 0,0.7 -0.1,1.1 0,0.1 -0.1,0.2 -0.1,0.2 V 43 c 0,0.2 -0.1,0.4 -0.1,0.5 v 0.4 c 0,0.1 -0.1,0.2 -0.1,0.3 v 0.4 c -0.1,0.3 -0.3,0.7 -0.4,1.1 -0.1,0.2 -0.1,0.5 -0.2,0.7 H 50 c -0.1,0.1 -0.1,0.2 -0.1,0.3 l -0.2,0.2 c -0.3,0.4 -0.5,0.8 -0.8,1.3 -0.1,0.1 -0.1,0.2 -0.1,0.2 0,0 0,0.1 -0.1,0.2 -0.1,0.1 -0.2,0.2 -0.3,0.2 -0.1,0.1 -0.1,0.1 -0.1,0.2 l -0.2,0.2 c -0.1,0.1 -0.2,0.3 -0.3,0.4 l -0.2,0.2 c -0.1,0.1 -0.1,0.1 -0.2,0.3 l -0.2,0.2 c -0.1,-0.1 0.1,-0.2 0.2,-0.3 0.1,-0.1 0.1,-0.2 0.2,-0.3 0.2,-0.3 0.5,-0.5 0.7,-0.8 0.1,-0.1 0.4,-0.6 0.4,-0.7 0,-0.2 0,-0.1 0.2,-0.4 l 0.3,-0.6 c 0.2,-0.3 0.7,-1.2 0.8,-1.7 0,-0.1 0.1,-0.2 0.1,-0.3 v -0.4 c 0.1,-0.2 0.2,-0.4 0.2,-0.7 0.1,0 0,0.2 0.1,0.2 0,-0.1 0.1,-0.3 0,-0.3 0.2,-0.2 0.2,-1 0.3,-1.6 v -0.2 l 0.1,-0.1 c 0,-0.1 -0.1,-0.3 0,-0.6 0.1,-0.1 0,0.1 0.1,-0.2 0,-0.1 0.1,-0.2 0.1,-0.3 V 39.7 C 50.8,39.6 50.6,39.1 50.6,38.8 Z M 45.4,31 c 0,0.2 -0.4,-0.1 -0.6,-0.2 -0.1,0 -0.2,0 -0.3,-0.1 -0.1,-0.1 -0.2,-0.1 -0.4,-0.2 -0.3,-0.2 -0.6,-0.2 -0.8,-0.3 -0.1,0 -0.1,-0.1 -0.1,-0.1 h 0.1 c 0.1,0 0.1,0.1 0.1,0.1 0.1,0 0.2,0 0.4,0.1 0.5,0.1 1.1,0.5 1.6,0.7 z m -2.6,22.1 0.8,-0.4 c 0,0.1 -0.7,0.5 -0.8,0.4 z m -5.7,1.3 c 0.4,0 0.7,-0.1 1.2,-0.1 0.3,0 0.7,0 1.1,-0.2 0.1,0 0.1,0 0.1,-0.1 0.1,-0.1 1.1,-0.3 1.4,-0.3 0.4,-0.2 0.8,-0.3 1.3,-0.5 -0.1,0.2 -0.5,0.3 -0.8,0.4 -0.2,0.1 -0.5,0.2 -0.9,0.3 H 40.2 C 39.7,54 39,54.2 38.4,54.3 h -0.7 c 0,0.2 -0.6,0.2 -0.6,0.1 z m -0.5,0.2 c -0.1,0 -0.2,-0.1 -0.4,-0.1 -0.4,0 -1.1,0 -0.8,-0.2 0,0.1 0.2,0 0.3,0 0.2,0 0.2,0.1 0.3,0.1 h 0.7 c 0.1,0.1 0,0.1 -0.1,0.2 z m -8.5,-2.7 c 0.3,0.2 0.5,0.5 0.8,0.6 0.3,0.1 0.4,0.1 0.7,0.2 0,0.2 -0.4,0 -0.6,-0.1 -0.2,-0.1 -0.5,-0.3 -0.6,-0.4 L 28.2,52 c 0,0.1 -0.2,0 -0.1,-0.1 z M 27.9,52 c -0.2,-0.2 -0.2,-0.2 -0.5,-0.3 0,-0.1 -0.2,-0.2 -0.1,-0.3 0.2,0 0.1,0.1 0.3,0.3 0.1,0.1 0.2,0 0.3,0.2 0,0 0.1,0.1 0,0.1 z m 5.6,2.2 c -0.3,-0.1 -0.8,-0.2 -1,-0.3 0.1,-0.1 1,0.1 1,0.3 z M 22.3,45.3 c 0,-0.1 0.1,0 0.2,0.1 0,-0.3 -0.6,-1 -0.5,-1.2 0.2,0.2 0.2,0.5 0.3,0.7 0.1,0.1 0.2,0.2 0.3,0.5 v 0.1 c 0.1,0 0.2,0.5 0.4,0.7 0,0.1 -0.1,-0.2 -0.2,-0.1 -0.1,0 0.2,0.3 0.1,0.3 -0.2,-0.3 -0.4,-0.6 -0.4,-0.8 0,-0.2 -0.1,-0.1 -0.2,-0.3 z m 1,0.5 c 0.2,-0.1 0.3,0.4 0.5,0.6 0.2,0.3 0.7,0.9 1,1.3 0.1,0.1 0.2,0.3 0.3,0.4 l 0.3,0.3 c 0.1,0.1 0.2,0.2 0.2,0.3 0.4,0.5 0.9,0.9 1.4,1.3 0.2,0.2 0.4,0.4 0.6,0.5 0.2,0.2 0.4,0.3 0.6,0.4 0.1,0.1 0.2,0.2 0.4,0.3 0.3,0.2 0.7,0.4 1,0.6 v 0.1 C 29.4,51.8 29.4,51.7 29.2,51.7 28.8,51.4 28.4,51.3 28.1,51 L 27.2,50.4 C 26.9,50.2 26.7,50 26.5,49.8 26.4,49.7 26.3,49.7 26.2,49.6 26.1,49.5 25.9,49.3 25.8,49.1 L 25.5,48.8 C 25.4,48.7 25.4,48.6 25.3,48.5 25.2,48.4 25,48.3 24.9,48.2 L 24.7,48 c -0.1,-0.1 -0.1,-0.1 -0.2,-0.1 -0.1,-0.2 -0.2,-0.3 -0.3,-0.5 -0.2,-0.5 -0.7,-1 -0.9,-1.6 z"
     fill="red"
     clip-rule="evenodd"
     fill-rule="evenodd" />
  <path
     inkscape:connector-curvature="0"
     id="path86"
     d="m 41.2,52.1 c 0.1,-0.1 0,-0.1 0,-0.1 -0.2,0.1 -0.3,0.2 -0.5,0.2 h -0.3 c -0.3,0.1 -0.5,0.2 -0.9,0.3 -0.2,0.1 0,0.1 -0.1,0.1 -0.1,0 -0.1,0 -0.1,-0.1 -0.1,0 -0.1,0.1 -0.2,0.1 h -0.2 c -0.2,0 -0.2,0.1 -0.4,0.1 h -1.1 c -0.2,0 -0.2,0.1 -0.5,0.2 0,-0.1 -0.2,0 -0.3,0 v -0.1 h -0.4 c 0,0 0,-0.1 -0.1,-0.1 -0.2,0 -0.4,-0.1 -0.7,-0.1 -0.1,0 -0.2,0.1 -0.3,0.1 0,-0.1 -0.1,-0.1 -0.2,-0.2 h -0.4 c -0.2,0 -0.2,-0.1 -0.4,-0.2 -0.1,0 -0.3,-0.1 -0.5,-0.1 -0.1,0 -0.2,-0.1 -0.3,-0.1 C 33,52 32.8,52 32.7,52 c -0.1,0 -0.2,-0.1 -0.2,-0.1 0,0 -0.5,0 -0.5,-0.1 0,-0.1 0,-0.1 -0.2,-0.1 -0.1,0 -0.2,-0.2 -0.3,-0.1 -0.2,-0.1 -0.1,-0.1 -0.2,-0.2 -0.1,-0.1 -0.2,0 -0.3,-0.1 0,0 0,-0.1 -0.1,-0.1 -0.2,-0.1 0,0.1 -0.2,0.1 C 30.6,51 30.6,51 30.4,51 30.3,51 30,50.9 30,50.8 c 0,-0.2 0,0 -0.2,-0.1 -0.1,0 -0.1,-0.2 -0.2,-0.3 -0.2,0 -0.7,-0.4 -0.8,-0.6 -0.1,-0.1 -0.3,-0.3 -0.4,-0.2 -0.1,-0.1 0.1,0 0,-0.1 C 28.1,49.3 28,49.3 27.7,49 27.5,48.8 27.4,48.4 27.2,48.5 27.2,48.4 27,48.3 26.9,48.1 l -0.1,-0.2 c 0,-0.1 -0.1,-0.1 -0.2,-0.2 C 26.5,47.6 26.4,47.3 26.2,47.1 26.1,47 26,47 25.9,46.9 c -0.1,-0.1 0,-0.1 -0.1,-0.2 0,0 -0.2,-0.1 -0.1,-0.2 l -0.2,-0.2 c -0.1,-0.1 0,-0.1 -0.1,-0.2 -0.1,-0.2 -0.2,-0.2 -0.3,-0.4 L 25,45.6 c 0,0 0.1,0 0,0 -0.1,-0.1 -0.2,-0.3 -0.2,-0.4 -0.1,-0.1 -0.2,-0.2 -0.2,-0.3 -0.1,-0.1 0,-0.2 -0.1,-0.3 0,-0.1 -0.1,-0.1 -0.1,-0.2 -0.1,-0.1 -0.1,-0.2 -0.1,-0.3 -0.1,-0.1 -0.2,-0.4 -0.3,-0.6 0,-0.1 0,-0.2 -0.1,-0.2 0,-0.1 -0.1,-0.2 -0.1,-0.3 v -0.2 c 0,-0.1 -0.1,-0.3 -0.2,-0.5 0,-0.1 -0.1,-0.1 -0.1,-0.2 v -0.2 c -0.1,-0.2 -0.2,-0.5 -0.2,-0.7 0,-0.1 0,-0.3 -0.1,-0.4 0,-0.1 -0.1,-0.3 -0.1,-0.5 V 40 C 23.1,39.9 23,39.7 23,39.5 v -0.2 c -0.1,-0.4 -0.2,-0.8 -0.1,-1.2 0.1,0.2 0.1,0.5 0.1,0.8 0,0.1 0.1,0.2 0.1,0.3 v 0.2 c 0,0.1 0,0.1 0.1,0.1 v 0.3 c 0,0.1 0.1,0.1 0.1,0.2 v 0.4 c 0.1,0.4 0.3,0.9 0.3,1.2 l -0.1,-0.1 c 0,0.2 0.2,0.4 0.3,0.6 v 0.3 c 0,0.1 0.1,0.1 0.1,0.2 0.1,0.1 0.2,0.7 0.3,0.9 l 0.1,0.1 v 0.1 c 0,0.1 0.1,0.1 0.1,0.2 0,0.1 0,0.2 0.1,0.2 0,0 0.1,0.1 0.1,0.2 0.1,0.2 0.2,0.5 0.4,0.7 0.1,0.1 0.2,0.3 0.3,0.4 0,0.1 0.1,0.2 0.1,0.3 0.1,0.1 0.2,0.3 0.3,0.4 0.1,0.1 0.5,0.6 0.5,0.7 0,0.2 0,0.1 0.2,0.2 0.1,0.1 0.1,0.2 0.1,0.2 0.1,0.1 0.1,0 0.2,0.1 v 0.1 h 0.1 c 0.1,0.1 0.1,0.2 0.2,0.3 l 0.6,0.6 c 0.1,0.2 0.2,0.3 0.3,0.5 l 0.3,0.3 c 0.3,0.2 0.6,0.6 1,0.8 0.1,0.1 0.2,0.1 0.3,0.1 0.2,0.4 1.1,0.8 1.6,1.1 0,0.1 -0.2,-0.1 -0.2,0 0,0.1 0.3,0.2 0.5,0.2 0.1,-0.1 -0.4,-0.1 -0.2,-0.2 0.1,0.1 0.1,0 0.3,0.1 0.1,0 0,0.1 0.1,0.1 l 0.9,0.3 c 0.1,0 0.2,0.1 0.3,0.1 0.1,0 0.2,0 0.3,0.1 0.1,0 0.2,0.1 0.4,0.2 0.3,0.1 0.5,0.1 0.8,0.2 0.2,0.1 0.5,0.1 0.7,0.2 h 0.7 c 0.1,0 0.2,0.1 0.2,0.1 0.5,0 1.1,-0.1 1.6,-0.1 0.1,0 0.1,0.1 0.2,0.1 0.3,0 0.5,-0.1 0.8,-0.1 0.2,0 0.3,0 0.6,-0.1 0.1,0 0.2,-0.1 0.2,-0.1 h 0.3 c 0.1,0 0.2,-0.1 0.3,-0.1 0.2,0 0.4,-0.1 0.5,-0.1 0.1,0 0.2,-0.1 0.2,-0.1 0.2,-0.1 0.5,-0.1 0.9,-0.3 0.1,0 0.1,-0.1 0.2,-0.1 0.1,0 0.2,0 0.2,-0.1 0.2,-0.1 0.3,-0.2 0.5,-0.3 0.1,0 0.2,-0.1 0.4,-0.2 0.2,-0.1 0.4,-0.2 0.7,-0.3 l 0.3,-0.3 c 0.2,-0.1 0.4,-0.2 0.6,-0.4 0.2,-0.1 0.3,-0.3 0.5,-0.4 0.1,-0.1 0.3,-0.2 0.4,-0.3 0.2,-0.1 0.5,-0.5 0.6,-0.6 0,0 0,-0.1 0.1,-0.2 l 0.2,-0.2 c 0.1,-0.1 0.3,-0.3 0.3,-0.4 h 0.1 c 0.1,-0.1 0.1,-0.2 0.2,-0.3 0.1,-0.1 0.3,-0.1 0.4,-0.5 0.1,0.2 -0.3,0.5 -0.2,0.6 -0.1,0.2 -0.3,0.3 -0.4,0.4 -0.1,0.1 0,0.1 -0.1,0.2 -0.1,0.2 -0.1,0 -0.2,0.1 -0.1,0 -0.1,0.2 -0.2,0.2 0,0 -0.2,0.1 -0.3,0.2 0.1,0.3 0.3,0.3 0.2,0.4 -0.2,0.2 -0.1,0 -0.1,0 l -0.3,0.3 c -0.1,0.2 0.3,-0.2 0.2,0 l -0.4,0.4 h -0.2 c -0.1,0 -0.1,0.1 -0.2,0.1 -0.2,0.1 -0.7,0.4 -0.9,0.7 0,0 0.2,-0.1 0.1,0 L 44,50.7 v 0.1 c 0,0 -0.2,0.1 -0.1,0.1 -0.1,0.1 -0.1,0 -0.2,0.1 -0.1,0 -0.1,0.2 -0.2,0.2 -0.1,0.1 -0.2,0 -0.2,0.1 -0.1,0 -0.1,0.1 -0.2,0.2 -0.1,0.1 -0.1,0 -0.3,0.1 -0.3,0.2 -0.7,0.5 -1.1,0.4 -0.3,-0.1 -0.4,0 -0.5,0.1 z"
     fill="red"
     clip-rule="evenodd"
     fill-rule="evenodd" />
</svg>
